<?xml version="1.0" standalone="no"?>
<!DOCTYPE svg PUBLIC "-//W3C//DTD SVG 20010904//EN"
 "http://www.w3.org/TR/2001/REC-SVG-20010904/DTD/svg10.dtd">
<svg version="1.0" xmlns="http://www.w3.org/2000/svg"
 width="667.000000pt" height="374.000000pt" viewBox="0 0 667.000000 374.000000"
 preserveAspectRatio="xMidYMid meet">

<g transform="translate(0.000000,374.000000) scale(0.100000,-0.100000)"
fill="#000000" stroke="none">
<path d="M674 3257 c-15 -39 14 -475 33 -496 2 -3 41 31 86 75 l82 79 -83 -86
-83 -86 12 -69 11 -69 167 -170 c91 -93 142 -147 113 -120 -30 28 -102 98
-160 157 -58 60 -107 107 -109 105 -6 -7 78 -267 120 -372 52 -130 115 -256
118 -235 0 8 2 22 3 30 2 8 3 24 4 35 2 14 5 16 10 7 6 -9 13 0 22 28 8 24 16
36 21 29 8 -14 -19 -101 -35 -111 -6 -4 -7 -8 -3 -8 5 0 1 -7 -7 -16 -9 -8
-13 -20 -10 -26 4 -5 52 36 108 91 99 100 101 102 81 119 -11 9 -33 33 -50 52
l-30 35 40 -35 c21 -19 45 -42 52 -50 11 -13 25 -2 102 75 48 50 101 101 116
115 l28 25 -17 -26 c-9 -15 -19 -37 -21 -49 -2 -13 -7 -25 -11 -29 -4 -3 -4 2
-1 12 9 25 -65 -29 -129 -94 l-48 -49 39 -42 40 -43 -42 39 -42 39 -47 -45
-47 -45 53 -99 c29 -55 62 -110 72 -124 11 -14 36 -48 56 -76 70 -97 181 -217
261 -284 22 -18 27 -28 19 -37 -6 -7 -6 -13 -2 -13 5 0 47 38 94 85 l84 85
-29 31 c-17 18 -49 50 -72 72 -44 40 -62 77 -20 41 32 -30 67 -49 110 -63 38
-13 46 -28 25 -49 -25 -25 7 -11 35 16 l29 27 -13 -27 c-7 -16 -16 -28 -20
-28 -31 0 91 -153 131 -163 20 -5 26 3 13 17 -33 32 35 74 138 85 13 2 19 34
9 46 -5 6 16 -1 47 -17 30 -15 63 -28 72 -29 11 0 8 -3 -7 -9 -12 -5 -28 -22
-34 -37 -22 -48 -49 -63 -74 -42 -17 14 -21 11 -26 -15 -1 -10 3 -21 11 -24 9
-3 11 0 6 9 -5 8 3 4 16 -8 13 -12 35 -26 49 -31 22 -9 25 -7 26 14 1 13 -2
24 -8 24 -5 0 -2 7 6 16 9 8 16 19 16 24 0 5 10 10 23 12 17 2 22 9 22 31 -1
15 2 27 5 27 3 0 23 -5 45 -10 23 -5 74 -12 115 -16 96 -8 121 -21 42 -22 -37
0 -76 -7 -103 -20 -48 -21 -95 -65 -85 -80 3 -5 -9 -19 -26 -32 -27 -20 -30
-26 -25 -63 7 -51 27 -72 62 -63 14 4 23 11 20 16 -3 5 -1 19 5 30 8 15 8 20
-2 20 -7 0 3 8 22 18 19 9 38 13 41 9 9 -13 0 -44 -17 -58 -11 -9 -10 -14 4
-28 9 -10 25 -21 36 -24 12 -5 16 -13 12 -23 -4 -9 -1 -23 6 -31 9 -11 7 -18
-8 -32 -18 -18 -21 -17 -79 5 -37 15 -92 50 -139 89 -43 36 -81 65 -84 65 -4
0 48 -55 116 -122 l122 -123 130 131 c163 166 156 159 155 126 0 -25 3 -27 34
-24 20 2 31 0 27 -6 -3 -5 1 -15 9 -22 7 -6 11 -18 9 -25 -13 -32 9 -36 40 -7
17 16 39 32 50 36 15 5 16 9 6 21 -7 8 -19 15 -27 15 -13 0 -13 3 1 25 20 31
20 39 0 31 -8 -3 -12 -2 -9 4 3 6 -1 10 -10 10 -8 0 -24 5 -35 12 -16 10 -25
9 -52 -11 l-33 -24 30 34 c17 18 35 38 40 42 6 5 3 7 -7 4 -17 -6 -48 21 -48
41 0 18 28 14 38 -4 6 -11 11 -13 16 -5 11 18 26 13 19 -6 -6 -16 -3 -15 16 2
13 11 27 28 33 38 9 17 7 17 -12 7 -15 -8 -20 -8 -16 -1 12 18 15 51 6 51 -19
0 -21 43 -4 78 20 43 33 54 54 46 8 -3 -9 20 -39 50 -48 49 -57 54 -87 49 -34
-6 -91 4 -81 14 3 3 -6 15 -19 27 -17 14 -23 27 -19 38 10 26 38 32 55 11 9
-10 29 -29 45 -43 16 -14 1 7 -34 45 -68 76 -134 135 -125 112 3 -9 -6 -24
-22 -36 -34 -27 -38 -56 -13 -97 20 -34 23 -45 12 -42 -5 1 -18 -2 -31 -6 -17
-6 -31 -1 -57 18 -19 15 -47 28 -63 30 -54 6 -67 25 -29 44 19 10 16 11 -21 6
-54 -7 -100 10 -108 42 -3 13 -9 24 -13 24 -17 0 -103 -99 -101 -116 4 -34 0
-43 -15 -38 -10 4 -14 17 -11 45 3 40 16 67 16 35 0 -29 19 -7 30 34 7 25 17
40 26 40 11 0 14 -5 10 -17 -4 -10 95 83 219 207 124 124 229 227 232 230 22
16 -104 -124 -152 -169 l-58 -55 28 -23 c15 -13 24 -27 20 -31 -4 -4 -18 6
-32 22 l-25 30 -37 -40 c-20 -22 -43 -49 -52 -60 -9 -10 -31 -32 -48 -47 -31
-29 -34 -61 -4 -35 9 7 18 12 20 11 12 -9 20 0 16 20 -4 20 2 27 32 41 54 26
130 36 149 19 9 -7 11 -8 6 -1 -16 19 -12 23 20 23 36 0 39 17 4 27 -35 9 -64
37 -57 54 3 8 37 45 75 82 75 72 91 77 135 42 43 -33 55 -27 38 21 -23 65 -19
92 19 133 19 20 31 36 27 36 -4 0 -16 -9 -27 -21 -10 -12 -32 -30 -49 -42 -21
-14 -15 -4 20 32 29 30 55 49 63 46 9 -3 12 0 9 9 -3 8 10 28 30 47 27 26 33
29 24 12 -6 -13 -8 -23 -3 -23 8 0 98 64 112 79 3 3 12 5 20 5 8 -1 21 -2 28
-3 8 -1 10 -9 6 -26 -5 -20 -2 -25 20 -31 29 -7 32 -14 14 -32 -9 -9 -8 -12 5
-12 9 0 17 -4 17 -10 0 -5 5 -10 10 -10 12 0 13 32 2 45 -5 6 -14 23 -20 39
-12 27 -11 28 8 23 16 -4 12 5 -21 44 -22 27 -43 49 -47 49 -3 0 -33 -23 -66
-52 l-61 -51 54 56 55 57 -24 32 c-18 25 -19 29 -4 17 10 -9 27 -19 37 -22 9
-4 17 -13 17 -21 0 -19 59 -68 72 -60 5 4 7 21 4 39 -5 22 -2 36 6 41 16 11
41 11 48 2 4 -4 21 18 40 49 30 49 35 67 36 121 0 51 5 68 19 78 13 10 22 11
31 3 17 -14 63 18 64 44 0 20 -4 21 -30 7 -28 -15 -47 -3 -70 45 -19 40 -24
43 -65 47 -39 3 -44 1 -48 -20 -3 -17 -1 -20 6 -13 18 18 47 13 47 -9 0 -12
-5 -17 -14 -14 -7 3 -23 -6 -34 -20 -22 -29 -32 -33 -32 -12 0 8 -5 18 -12 22
-6 4 -8 3 -5 -3 3 -5 -18 -28 -47 -52 -48 -38 -54 -47 -60 -90 -4 -33 -15 -57
-32 -75 -16 -15 -24 -32 -20 -41 4 -13 2 -14 -14 -5 -15 8 -20 6 -25 -10 -8
-24 -28 -26 -45 -5 -7 8 -21 15 -31 15 -25 0 -69 21 -71 34 -1 6 -2 37 -3 68
-1 57 -1 57 19 40 11 -9 -8 16 -43 56 -57 65 -91 95 -102 89 -2 -1 -3 0 -1 2
4 7 -40 51 -51 51 -6 0 0 -9 13 -20 27 -24 25 -28 -20 -36 -25 -6 -31 -4 -25
6 5 9 2 10 -12 6 -14 -5 -31 3 -58 27 -41 37 -40 52 3 68 21 8 32 6 56 -12 24
-16 20 -10 -14 25 -24 25 -48 46 -52 46 -4 0 -26 -17 -49 -37 -35 -32 -40 -41
-35 -67 4 -16 12 -34 19 -38 9 -6 9 -8 -1 -8 -8 0 -33 -16 -56 -35 -48 -39
-56 -42 -56 -20 0 22 -11 18 -51 -18 -40 -35 -66 -77 -49 -77 5 0 10 -4 10
-10 0 -5 -5 -10 -11 -10 -12 0 -69 -57 -69 -69 0 -4 14 -17 31 -30 20 -15 27
-26 21 -34 -5 -7 -12 -20 -16 -31 -5 -14 -2 -17 9 -12 21 8 19 3 -10 -28 -32
-34 -31 -39 3 -56 15 -8 29 -16 31 -17 3 -2 -5 -10 -17 -19 -12 -8 -22 -20
-22 -25 0 -6 -7 -17 -15 -25 -16 -16 -11 -68 9 -93 9 -12 8 -12 -11 -3 -20 11
-22 9 -28 -26 -6 -39 5 -85 25 -97 6 -4 24 6 39 22 24 25 26 32 15 49 -12 17
-11 19 12 20 14 1 42 14 63 28 20 14 40 26 43 26 3 0 11 -13 17 -30 5 -16 15
-30 20 -30 13 0 14 -6 -4 60 -9 34 -12 73 -9 103 6 46 8 48 37 45 23 -2 31 -8
32 -25 1 -13 4 -26 8 -29 10 -11 77 -22 77 -13 0 5 8 9 18 9 14 0 15 2 2 10
-13 8 -12 10 3 10 9 0 17 -7 17 -15 0 -8 -5 -15 -11 -15 -8 0 -8 -4 1 -15 16
-19 3 -72 -21 -85 -10 -6 -19 -17 -19 -25 0 -8 -5 -15 -11 -15 -5 0 -7 -4 -4
-10 3 -5 1 -10 -4 -10 -6 0 -11 7 -11 15 0 8 -4 15 -9 15 -5 0 -12 8 -14 18
-3 9 -10 38 -17 64 -8 31 -18 48 -31 51 -24 6 -24 -2 -1 -50 63 -131 62 -126
47 -144 -8 -8 -15 -20 -15 -25 0 -12 -70 -49 -84 -45 -5 1 -4 -5 4 -13 24 -30
0 -16 -48 26 l-47 42 35 -38 35 -38 -47 5 c-26 2 -45 1 -43 -3 3 -5 -13 -23
-36 -41 l-41 -32 24 -13 c12 -7 18 -13 12 -14 -7 0 -14 -8 -17 -19 -5 -22
-120 -101 -147 -101 -10 0 -31 5 -46 11 -41 15 -71 3 -98 -39 -29 -45 -46 -94
-25 -74 19 18 28 15 22 -9 -3 -11 -14 -26 -24 -32 -11 -7 -19 -16 -19 -22 0
-15 -63 -55 -87 -55 -15 0 -29 14 -47 48 -17 31 -20 39 -7 25 10 -12 21 -19
25 -16 3 3 12 0 21 -7 25 -21 43 -6 36 32 -9 50 -23 68 -60 72 -18 2 -37 10
-42 17 -4 7 -11 10 -15 7 -17 -17 -93 106 -92 149 1 26 3 29 14 18 8 -7 14
-18 14 -23 0 -6 8 -9 18 -8 9 2 34 -8 54 -21 20 -14 42 -22 48 -18 6 4 17 2
24 -4 18 -15 78 -17 102 -3 16 9 16 11 3 12 -29 0 -29 36 0 68 15 16 25 35 23
42 -3 7 0 10 7 6 8 -5 8 0 1 20 -11 28 2 56 24 53 51 -6 48 29 -6 64 -43 28
-60 29 -38 2 10 -12 10 -21 1 -41 -6 -14 -11 -43 -11 -64 0 -25 -5 -40 -12
-40 -9 0 -13 16 -13 47 0 39 -3 47 -17 45 -17 -3 -23 8 -34 71 -3 20 -10 40
-16 43 -5 3 -6 15 -2 27 6 20 5 20 -10 8 -35 -29 -24 -3 15 35 35 34 38 35 26
12 -13 -26 -12 -30 22 -66 l36 -38 8 34 c4 19 18 45 32 58 27 25 32 40 13 46
-9 3 -9 12 0 38 16 45 8 49 -31 14 -17 -16 -11 -6 16 21 26 28 47 54 47 58 0
4 -19 29 -42 55 l-42 47 41 -38 c22 -22 43 -35 46 -30 2 4 12 31 21 60 13 38
15 60 7 85 -5 18 -10 26 -11 18 -1 -8 -3 -25 -4 -38 -4 -34 -46 -75 -63 -61
-18 16 -16 148 3 156 20 7 18 17 -11 51 -15 18 -23 37 -19 46 9 23 57 20 72
-4 7 -11 20 -20 30 -20 14 0 15 2 2 10 -8 5 -15 24 -15 42 0 20 -5 32 -12 31
-7 -2 -24 12 -38 31 -24 32 -31 68 -19 100 17 44 102 -10 91 -56 -6 -22 -4
-24 28 -20 19 2 35 5 35 6 0 1 -23 26 -52 56 l-51 54 -241 3 c-132 2 -246 1
-253 -1 -18 -7 1 -63 34 -100 26 -28 26 -29 3 -11 -14 11 -27 23 -30 26 -17
20 -92 82 -86 71 5 -9 -4 -26 -28 -49 l-36 -36 0 51 0 52 -210 0 c-166 0 -212
-3 -216 -13z m522 -42 c4 -8 2 -21 -4 -28 -5 -6 -12 -39 -16 -72 -3 -33 -8
-72 -12 -86 -3 -14 1 -42 10 -64 9 -20 15 -58 15 -84 -1 -25 -4 -37 -6 -27 -6
23 -28 47 -36 40 -3 -3 0 -22 7 -42 11 -32 12 -179 1 -190 -2 -2 -6 36 -10 85
-3 48 -15 131 -26 183 -11 52 -19 113 -19 135 3 61 1 67 -12 59 -14 -8 9 22
56 74 33 36 44 39 52 17z m324 -81 c10 -4 8 -8 -9 -17 -24 -12 -58 -77 -41
-77 6 0 10 -4 10 -9 0 -5 -9 -7 -21 -4 -17 5 -20 11 -15 35 3 16 16 38 28 48
13 11 17 19 11 20 -7 0 -13 -5 -13 -11 0 -5 -5 -7 -12 -3 -9 6 -9 9 0 12 7 2
10 7 7 12 -5 8 19 5 55 -6z m-450 -27 c0 -2 -10 -12 -22 -23 l-23 -19 19 23
c18 21 26 27 26 19z m-70 -70 c0 -2 -10 -12 -22 -23 l-23 -19 19 23 c18 21 26
27 26 19z m-50 -50 c0 -2 -15 -16 -32 -33 l-33 -29 29 33 c28 30 36 37 36 29z
m336 -24 c-10 -10 -19 5 -10 18 6 11 8 11 12 0 2 -7 1 -15 -2 -18z m1221 -10
c4 -10 13 -24 20 -31 7 -7 13 -19 14 -25 0 -7 2 -22 3 -34 2 -13 -1 -23 -6
-23 -4 0 6 -13 23 -28 18 -16 29 -34 25 -40 -10 -16 -74 -12 -80 5 -4 9 -1 11
6 7 6 -4 8 -3 5 3 -10 16 -58 13 -64 -4 -3 -8 -1 -18 4 -22 6 -3 12 -15 14
-26 3 -13 15 -22 34 -26 25 -5 18 -14 -7 -10 -5 0 -8 -6 -8 -14 0 -8 -6 -15
-12 -15 -7 0 -26 -7 -41 -15 -56 -29 -119 -17 -164 31 -21 23 -22 26 -7 49 9
13 13 28 10 34 -10 16 5 42 31 52 24 9 27 14 37 59 5 25 45 55 101 76 44 17
55 16 62 -3z m-1093 -41 c-11 -17 -12 -27 -3 -43 8 -15 8 -19 0 -15 -9 6 -15
-4 -13 -24 0 -3 -8 -7 -19 -7 -10 -1 -19 2 -19 8 0 5 6 9 14 9 7 0 16 9 19 20
3 11 0 20 -6 20 -7 0 -19 5 -27 10 -12 8 -9 14 20 39 39 32 60 22 34 -17z
m117 1 c13 -16 12 -17 -3 -4 -10 7 -18 15 -18 17 0 8 8 3 21 -13z m85 -85 l29
-33 -32 29 c-31 28 -38 36 -30 36 2 0 16 -15 33 -32z m-182 5 c-5 -5 -12 -12
-16 -18 -4 -6 -8 -2 -8 8 0 9 7 17 17 17 9 0 12 -3 7 -7z m-220 -133 c2 -25 2
-35 -1 -22 -3 15 -10 22 -19 18 -16 -6 -18 23 -7 89 l7 40 8 -40 c4 -22 9 -60
12 -85z m-6 -80 c0 -9 -3 -7 -8 5 -5 11 -8 29 -8 40 0 16 2 15 8 -5 4 -14 8
-32 8 -40z m49 -50 l-14 -21 -7 23 c-3 13 -6 31 -6 41 0 17 1 16 21 -2 19 -18
20 -21 6 -41z m180 -2 c-3 -35 -13 -80 -22 -100 -15 -36 -14 -38 4 -38 11 0
26 6 33 13 17 15 38 20 38 9 0 -15 -40 -46 -60 -47 -10 -1 -16 3 -13 8 3 5 0
7 -8 5 -9 -3 -13 -16 -11 -33 2 -19 -5 -36 -24 -56 -26 -27 -52 -40 -40 -20 3
5 -5 19 -17 32 -37 39 -56 75 -62 117 l-5 40 38 -37 c20 -21 44 -40 53 -43 20
-8 42 27 33 54 -4 13 -2 18 4 14 11 -7 34 26 37 54 3 34 18 90 23 90 2 0 2
-28 -1 -62z m853 48 c0 -2 -7 -7 -16 -10 -8 -3 -12 -2 -9 4 6 10 25 14 25 6z
m-1112 -31 c-3 -3 -9 2 -12 12 -6 14 -5 15 5 6 7 -7 10 -15 7 -18z m889 -1
c-3 -3 -12 -4 -19 -1 -8 3 -5 6 6 6 11 1 17 -2 13 -5z m-539 -159 c7 -14 12
-43 11 -63 0 -35 -1 -35 -10 -12 -6 14 -8 32 -6 41 4 14 0 16 -24 9 -16 -5
-34 -12 -40 -16 -16 -9 -3 13 24 44 26 28 31 28 45 -3z m-157 -188 c-6 -6 -11
-16 -11 -21 0 -6 5 -4 11 4 9 12 10 12 7 1 -7 -26 -28 -24 -28 2 0 27 9 39 22
31 6 -4 5 -11 -1 -17z m249 -2 c0 -8 -7 -15 -16 -15 -14 0 -14 3 -4 15 7 8 14
15 16 15 2 0 4 -7 4 -15z m24 -44 c-21 -21 -29 -19 -21 4 4 8 14 15 23 15 16
0 16 -2 -2 -19z m-560 -149 c-6 -9 -14 -15 -18 -12 -4 3 -14 -6 -21 -20 -17
-30 -19 -24 -4 18 6 18 15 29 20 26 13 -7 12 -4 -16 70 -34 92 -30 94 13 8 29
-57 34 -76 26 -90z m650 -80 c3 -5 -1 -9 -9 -9 -8 0 -12 4 -9 9 3 4 7 8 9 8 2
0 6 -4 9 -8z m176 -184 c0 -10 -9 -28 -20 -40 -30 -32 -24 -45 7 -17 l27 24
-25 -34 c-14 -19 -36 -42 -50 -50 -22 -15 -23 -15 -10 2 12 15 11 17 -7 17
-18 0 -20 5 -16 48 7 68 8 69 53 69 34 0 41 -3 41 -19z m400 -28 c0 -5 -7 -10
-16 -10 -8 0 -12 5 -9 10 3 6 10 10 16 10 5 0 9 -4 9 -10z m-716 -55 c18 -13
17 -14 -8 -21 -32 -8 -39 -3 -30 20 7 19 13 20 38 1z m1009 -68 c21 5 22 -10
2 -27 -21 -18 -20 -51 2 -43 11 5 14 3 8 -6 -5 -9 2 -22 19 -36 26 -23 27 -24
8 -34 -11 -6 -22 -7 -26 -4 -3 3 -6 1 -6 -6 0 -21 -21 0 -36 35 -8 19 -19 34
-24 34 -6 0 -10 10 -10 22 0 12 -7 30 -16 40 -14 14 -14 21 -4 33 10 12 16 12
39 2 14 -8 34 -12 44 -10z m-913 -22 c13 -14 21 -25 18 -25 -2 0 -15 11 -28
25 -13 14 -21 25 -18 25 2 0 15 -11 28 -25z m955 -214 c3 -5 1 -12 -4 -15 -5
-3 -11 1 -15 9 -6 16 9 21 19 6z m60 -80 c-3 -6 -11 -11 -17 -11 -6 0 -6 6 2
15 14 17 26 13 15 -4z m-147 -17 c-9 -9 -21 -13 -27 -10 -20 13 -11 26 16 26
25 0 26 -1 11 -16z m-288 -34 c0 -5 -5 -10 -11 -10 -5 0 -7 5 -4 10 3 6 8 10
11 10 2 0 4 -4 4 -10z"/>
<path d="M2405 2760 c-3 -5 3 -10 14 -10 12 0 21 5 21 10 0 6 -6 10 -14 10 -8
0 -18 -4 -21 -10z"/>
<path d="M2345 2730 c-3 -6 1 -7 9 -4 18 7 21 14 7 14 -6 0 -13 -4 -16 -10z"/>
<path d="M2234 3255 c3 -9 -3 -32 -14 -53 -31 -58 -25 -70 16 -31 48 46 58 67
43 85 -16 20 -53 19 -45 -1z m46 -15 c0 -5 -4 -10 -10 -10 -5 0 -10 5 -10 10
0 6 5 10 10 10 6 0 10 -4 10 -10z"/>
<path d="M2705 3262 c-11 -3 -25 -12 -32 -22 -8 -11 -20 -16 -33 -13 -18 5
-19 3 -8 -28 24 -70 34 -76 121 -74 43 1 83 7 90 14 8 8 7 11 -4 11 -9 0 -24
9 -34 20 l-18 20 -19 -20 c-20 -21 -43 -26 -52 -12 -3 5 -1 26 5 46 13 47 9
63 -16 58z"/>
<path d="M2843 3262 c-26 -3 -34 -9 -39 -28 -13 -51 30 -57 61 -10 22 33 17
42 -22 38z"/>
<path d="M3230 3251 c0 -10 7 -24 15 -31 12 -10 15 -10 15 0 0 10 3 10 15 0
12 -10 15 -10 15 3 0 8 3 22 6 31 5 13 -1 16 -30 16 -29 0 -36 -4 -36 -19z"/>
<path d="M3537 3258 c-10 -7 -21 -33 -25 -58 -6 -39 -11 -45 -34 -48 -25 -3
-27 -1 -30 45 l-3 48 -28 -44 c-21 -32 -26 -46 -17 -51 7 -4 10 -13 6 -19 -4
-5 -7 -36 -7 -67 -1 -45 -5 -57 -18 -61 -10 -2 -25 -17 -34 -33 -10 -16 -26
-31 -35 -35 -11 -3 -18 -14 -18 -28 1 -15 -4 -21 -14 -18 -39 10 -89 8 -94 -4
-2 -7 9 -25 25 -41 26 -25 31 -26 55 -15 39 18 57 -4 62 -77 4 -62 5 -61 -50
-103 -20 -14 -28 -29 -28 -50 0 -17 -6 -42 -14 -57 -13 -25 -33 -156 -29 -190
0 -7 -5 -11 -12 -8 -9 3 -12 0 -9 -9 3 -7 0 -23 -6 -35 -6 -11 -14 -42 -17
-68 -2 -26 -18 -73 -33 -104 -16 -32 -24 -58 -18 -58 6 0 7 -10 3 -27 -4 -16
-7 -36 -7 -45 1 -26 -31 -32 -46 -9 -15 22 -32 17 -76 -21 -11 -10 -24 -18
-29 -18 -5 0 -7 -7 -3 -15 3 -10 -1 -15 -13 -15 -12 0 -23 -12 -31 -32 -8 -18
-20 -41 -28 -50 -10 -12 -11 -18 -4 -18 7 0 12 -11 12 -25 0 -26 -53 -84 -77
-85 -7 0 -17 -9 -23 -20 -9 -18 -8 -20 15 -20 15 0 24 -4 20 -9 -3 -5 -1 -13
5 -16 6 -4 9 -1 8 7 -2 7 7 14 20 16 12 2 22 7 22 12 0 9 19 8 37 -3 6 -4 14
-2 16 3 3 6 4 5 3 -2 -2 -7 -10 -12 -19 -10 -12 2 -15 -2 -10 -14 4 -11 2 -15
-4 -11 -6 4 -14 0 -17 -9 -3 -8 -10 -13 -15 -10 -12 8 -21 -18 -12 -32 4 -8
28 10 66 48 56 57 58 59 42 83 -8 13 -17 34 -19 47 -1 14 -13 30 -26 36 -41
20 -36 24 29 24 64 0 65 0 64 -27 0 -18 -8 -31 -23 -39 -16 -8 -20 -14 -12
-19 6 -4 9 -13 6 -21 -10 -25 7 -15 58 34 42 40 46 42 26 14 -12 -19 -29 -36
-37 -39 -8 -3 -12 -12 -9 -19 3 -8 0 -13 -6 -11 -6 1 -12 -18 -14 -46 -2 -31
-14 -68 -33 -102 -28 -49 -29 -53 -13 -71 16 -17 16 -17 -3 -4 -11 8 -38 30
-60 49 l-40 36 33 -36 33 -36 -57 -46 c-31 -26 -60 -47 -64 -47 -4 0 -19 9
-32 20 l-25 19 -27 -28 -28 -29 32 -7 c18 -4 44 -2 61 5 25 11 32 10 47 -3 16
-15 20 -15 40 -1 13 9 19 20 15 27 -5 8 -2 8 9 0 8 -7 18 -10 21 -6 4 3 7 1 7
-6 0 -7 9 -9 25 -5 19 5 25 2 25 -10 0 -9 -3 -16 -7 -16 -11 0 -83 -65 -83
-74 0 -4 10 -4 23 0 l22 7 -19 -24 c-11 -13 -38 -40 -59 -60 -33 -30 -38 -39
-32 -60 7 -20 9 -21 14 -7 6 15 9 15 45 -2 22 -10 45 -16 52 -13 10 4 11 -3 4
-28 -5 -17 -7 -35 -5 -40 3 -4 -4 -24 -16 -44 l-22 -36 22 -15 c12 -9 19 -18
17 -22 -2 -4 18 -7 45 -7 34 0 49 4 49 13 0 8 -5 10 -12 6 -10 -5 -10 -4 -1 6
7 7 10 25 7 39 -3 21 2 30 30 47 31 20 36 20 67 7 19 -8 42 -12 51 -9 10 2 16
0 12 -5 -13 -22 27 -6 42 16 21 32 69 36 61 5 -3 -13 0 -20 8 -20 8 0 21 -7
29 -16 9 -8 16 -13 16 -9 0 4 7 -1 16 -10 13 -12 14 -19 5 -28 -6 -6 -11 -16
-11 -21 0 -7 3 -8 8 -1 4 6 16 17 26 25 18 14 19 13 13 -2 -8 -22 79 -108 109
-108 12 0 25 -7 28 -16 5 -13 -1 -15 -36 -10 -92 12 -207 18 -218 11 -5 -3 -8
-11 -4 -16 3 -6 12 -5 22 3 15 12 16 11 3 -5 -9 -12 -18 -14 -24 -8 -13 13
-39 -20 -61 -74 l-16 -40 21 25 c20 24 20 24 14 3 -5 -17 -2 -23 9 -23 10 0
13 6 10 17 -5 17 -4 17 9 0 12 -15 35 -19 115 -24 l99 -6 14 31 c7 17 17 28
23 25 5 -3 6 -1 2 6 -4 6 -4 21 -1 32 10 30 26 3 20 -31 -4 -20 -2 -18 10 8 9
18 19 30 24 27 10 -6 -9 -65 -21 -65 -4 0 -8 -4 -8 -9 0 -6 9 -9 20 -8 12 1
20 8 20 19 0 10 5 18 11 18 6 0 9 -9 6 -20 -3 -11 -1 -18 4 -14 5 3 9 11 9 17
0 7 4 18 9 26 14 22 43 -5 36 -33 -5 -15 -4 -17 3 -7 8 11 14 10 36 -4 53 -35
20 -40 -264 -39 -218 0 -272 3 -286 15 -10 8 -15 10 -12 4 3 -5 -11 -18 -31
-28 -29 -15 -16 2 67 85 76 77 97 104 82 104 -11 0 -20 -4 -20 -9 0 -11 -102
-119 -107 -113 -2 2 9 31 25 65 l29 61 -30 0 c-22 0 -28 -4 -23 -16 3 -8 2
-12 -4 -9 -13 8 -13 -1 1 -27 9 -16 8 -19 -2 -13 -9 6 -11 3 -6 -9 4 -11 3
-15 -4 -10 -8 4 -9 -1 -4 -17 6 -21 6 -22 -6 -7 -8 9 -27 20 -44 24 -27 7 -29
6 -16 -9 11 -14 11 -17 0 -17 -26 -1 17 -19 50 -22 36 -3 38 -6 14 -23 -13 -9
-23 -10 -37 -3 -10 5 -16 6 -13 1 3 -5 -3 -9 -13 -9 -10 0 -17 3 -15 6 2 3
-17 7 -41 8 -24 1 -70 8 -102 16 -31 8 -81 17 -110 20 -30 4 -63 11 -73 17
-11 5 -25 7 -31 3 -7 -5 -9 -2 -6 8 5 11 0 14 -18 10 -13 -2 -31 1 -40 9 -18
15 -64 21 -64 8 0 -5 4 -9 9 -9 5 0 12 -7 15 -16 11 -28 -43 18 -148 126 -91
94 -101 101 -113 84 -19 -26 -17 -29 25 -43 34 -12 112 -70 112 -85 0 -10 -24
-7 -52 8 -15 8 -40 17 -57 21 -18 4 -31 13 -31 21 0 11 -9 14 -31 12 -36 -5
-141 -102 -132 -123 6 -17 320 -145 463 -190 63 -20 129 -43 145 -51 19 -10
-6 21 -70 85 -97 98 -115 127 -50 76 18 -13 36 -21 40 -17 5 4 5 2 2 -4 -4 -6
22 -40 56 -76 48 -50 72 -67 107 -76 104 -26 101 -27 155 28 54 55 70 62 59
28 l-7 -23 24 20 24 20 -18 -21 c-9 -11 -14 -24 -10 -29 5 -4 2 -5 -4 -1 -9 5
-13 0 -13 -13 0 -13 -6 -21 -17 -21 -10 0 -14 4 -8 8 6 4 10 17 11 30 l1 23
-22 -23 c-12 -13 -20 -26 -18 -31 2 -4 -1 -6 -8 -5 -6 2 -13 -2 -16 -8 -10
-27 460 -60 664 -46 l61 4 20 49 c12 27 17 49 13 49 -4 0 -14 -18 -21 -41 -14
-41 -40 -63 -48 -41 -2 7 -10 12 -18 12 -9 0 -12 -4 -9 -10 3 -6 -4 -9 -18 -8
-16 1 -23 7 -19 16 3 10 7 11 12 2 8 -14 20 10 20 41 0 14 -7 19 -27 19 -59 0
-10 9 131 25 83 9 153 18 158 21 4 3 8 -1 8 -8 0 -9 3 -10 8 -2 4 6 54 21 112
33 58 12 120 25 138 30 l32 10 -22 -29 c-13 -16 -28 -28 -33 -27 -6 1 -10 -1
-10 -4 0 -15 -38 -48 -49 -42 -6 3 -8 2 -3 -2 4 -5 0 -17 -10 -27 -9 -10 -12
-18 -7 -18 5 0 47 38 94 85 47 47 92 85 102 85 9 0 29 5 43 12 30 14 41 6 26
-19 -8 -14 -11 -15 -11 -3 -1 13 -2 13 -10 -1 -5 -8 -11 -27 -14 -42 -2 -15
-7 -31 -11 -37 -7 -11 5 -13 29 -4 9 3 13 10 10 15 -3 5 -9 7 -14 4 -4 -3 -7
3 -5 12 2 10 4 23 5 28 1 6 5 1 9 -9 6 -16 10 -10 20 27 12 40 18 48 50 58 20
6 113 49 206 95 238 116 468 274 647 443 61 57 70 62 86 50 15 -13 16 -12 3 4
-12 15 -8 23 41 75 108 113 241 292 327 437 80 135 83 138 90 129 3 -5 15 -16
26 -24 11 -8 8 -1 -7 16 l-28 30 34 64 c19 36 49 101 66 145 18 44 37 91 43
105 5 14 9 29 8 33 -1 5 3 6 9 2 6 -3 7 -12 4 -18 -4 -7 5 1 19 16 29 30 35
43 15 31 -13 -8 5 20 27 41 47 47 78 86 72 91 -3 4 -36 -24 -72 -61 -36 -37
-65 -63 -65 -58 0 6 34 43 75 84 41 41 77 84 80 97 2 12 6 26 9 31 3 5 -1 12
-10 15 -9 4 -12 2 -8 -5 3 -6 -11 -29 -32 -52 -30 -32 -32 -35 -6 -13 56 51
35 13 -28 -49 l-59 -59 19 63 c16 52 30 75 84 131 36 37 66 75 66 83 0 9 5 17
11 19 7 2 5 9 -5 17 -14 12 -16 12 -10 -3 3 -9 1 -16 -4 -16 -6 0 -34 -23 -62
-50 -28 -28 -49 -42 -46 -33 3 10 10 47 16 83 17 97 17 96 43 74 22 -19 22
-19 -1 7 -20 23 -22 32 -16 83 4 32 12 63 18 70 6 7 29 31 51 54 36 39 40 48
42 100 l1 57 -44 -48 c-25 -26 -46 -47 -47 -47 -1 0 0 40 1 90 l4 90 -40 0
c-48 0 -51 -7 -50 -161 0 -63 -4 -114 -11 -127 -13 -24 -10 -33 23 -72 19 -23
20 -24 1 -9 -37 29 -40 28 -40 -14 1 -23 -5 -69 -13 -102 -7 -33 -13 -67 -13
-75 -1 -46 -116 -405 -135 -421 -8 -6 -14 -16 -14 -22 0 -6 12 0 27 14 29 26
22 8 -10 -28 -26 -29 -70 -130 -71 -165 -1 -28 -7 -27 -45 6 l-25 21 22 -29
c17 -22 19 -32 11 -48 -17 -32 -204 -323 -217 -339 -7 -8 -29 -36 -49 -64 -21
-27 -56 -70 -79 -95 -70 -76 -94 -107 -86 -115 4 -4 1 -6 -6 -4 -8 3 -37 -18
-65 -46 -89 -86 -182 -161 -289 -231 -40 -26 -75 -52 -78 -56 -3 -4 -41 -27
-83 -51 -42 -24 -73 -48 -69 -52 4 -5 -1 -5 -10 -2 -23 8 -42 -25 -25 -43 10
-10 8 -10 -10 -1 -14 7 -24 8 -28 1 -3 -5 -21 -10 -40 -10 -22 0 -38 -6 -44
-17 -6 -10 -11 -15 -11 -10 0 13 -82 -33 -135 -76 l-50 -41 55 57 c61 64 62
74 2 24 -24 -21 -69 -43 -114 -56 -40 -13 -84 -27 -98 -31 -21 -7 -199 -49
-238 -56 -8 -1 -45 -8 -83 -14 -70 -12 -70 -12 -52 -33 l18 -21 -30 21 c-16
12 -59 51 -95 87 -63 64 -88 81 -77 52 4 -10 1 -13 -8 -9 -8 3 -12 10 -8 16 3
5 1 7 -5 3 -6 -3 -13 -2 -17 3 -3 5 1 13 9 18 12 7 7 17 -26 51 -31 33 -43 40
-50 30 -6 -9 -7 -7 -3 8 4 16 -5 31 -42 64 -27 23 -63 61 -82 84 -32 37 -32
39 -5 14 34 -32 44 -35 44 -12 0 8 4 13 9 9 5 -3 12 -1 16 5 4 6 15 4 31 -6
20 -14 27 -14 41 -3 15 12 16 12 11 -9 -4 -12 -2 -20 3 -16 5 3 9 0 9 -6 0 -5
14 -19 32 -30 24 -14 42 -18 74 -13 56 7 78 -1 66 -24 -11 -22 -5 -43 13 -43
8 0 21 -13 31 -29 12 -20 32 -33 69 -45 67 -21 70 -21 73 9 1 21 18 65 40 108
2 4 -3 7 -11 7 -9 0 -17 6 -19 12 -3 9 -12 8 -31 -5 -32 -21 -37 -21 -37 -2 0
8 -4 15 -10 15 -5 0 -7 7 -3 15 3 9 11 14 17 12 6 -2 19 0 29 5 13 7 31 4 60
-10 48 -23 75 -50 127 -125 22 -31 45 -53 58 -55 22 -3 30 12 12 23 -5 3 -10
11 -10 16 0 6 4 8 9 5 10 -7 19 22 13 46 -3 14 -7 15 -22 6 -31 -20 -35 -1 -8
34 21 27 23 35 12 46 -7 6 -25 12 -39 12 -25 0 -45 29 -45 65 0 21 33 52 63
59 25 6 28 4 22 -14 -3 -11 -3 -20 2 -20 19 1 143 67 137 73 -4 3 4 15 17 25
23 19 23 20 5 48 -10 16 -13 23 -5 17 7 -7 25 -13 41 -13 30 0 48 -23 41 -51
-6 -23 -11 -24 -37 -2 -12 10 -15 11 -8 3 12 -13 18 -39 6 -28 -3 3 -15 -4
-27 -16 -12 -11 -32 -28 -44 -36 -22 -15 -23 -16 -7 -68 15 -50 20 -56 66 -77
71 -33 95 -23 90 38 -1 10 7 30 17 44 11 13 17 32 14 41 -3 9 14 -2 39 -26
l45 -44 5 27 c3 14 -1 42 -8 63 -17 49 -17 69 1 76 9 3 15 0 15 -9 0 -7 16
-30 35 -51 29 -30 37 -34 50 -24 13 11 13 14 0 27 -8 8 -15 17 -15 20 0 4 3 3
7 0 3 -4 12 2 20 13 12 17 12 22 -6 41 -15 17 -23 19 -39 10 -12 -6 -23 -11
-25 -11 -8 0 0 59 10 72 26 35 32 65 15 81 -14 15 -14 18 1 35 9 10 17 27 16
38 0 10 -3 13 -6 7 -7 -18 -62 -16 -69 2 -4 8 -14 15 -23 16 -12 0 -10 3 5 9
34 13 50 62 28 81 -11 9 -14 8 -14 -5 0 -9 -4 -16 -9 -16 -5 0 -19 -16 -32
-35 -19 -28 -31 -35 -57 -35 -18 0 -42 -5 -53 -10 -11 -7 -19 -7 -19 -1 0 5 6
12 13 14 8 4 7 6 -3 6 -34 2 -54 107 -26 130 16 14 67 18 85 7 6 -4 18 0 27 8
9 9 20 13 25 10 6 -3 9 0 8 7 -2 8 7 33 19 56 15 29 20 51 16 72 -6 26 -3 31
20 37 24 6 26 10 26 63 0 66 11 91 32 73 8 -6 30 -9 49 -7 39 5 72 -2 64 -15
-3 -4 2 -11 11 -14 27 -10 28 -7 7 17 -34 38 -40 53 -12 34 33 -24 45 -21 43
11 -1 15 -3 29 -4 32 -1 3 -3 12 -4 20 0 8 -14 17 -30 20 -16 3 -31 10 -33 15
-5 17 71 35 105 26 24 -7 30 -6 26 4 -3 8 -12 11 -20 8 -8 -3 -14 -1 -14 5 0
5 -10 12 -22 16 -17 4 -20 8 -10 15 11 6 10 10 -3 15 -47 18 -75 -5 -75 -60 0
-24 -3 -26 -30 -20 -34 6 -37 1 -12 -28 14 -17 14 -18 1 -8 -14 10 -18 10 -22
-2 -7 -17 -43 -11 -69 12 -16 14 -22 11 -62 -29 -82 -82 -91 -84 -13 -3 42 45
77 86 77 91 0 5 -15 22 -32 39 l-33 29 29 -32 c24 -27 27 -35 16 -48 -7 -8
-16 -12 -21 -9 -5 3 -12 -2 -15 -10 -9 -24 -49 -19 -75 8 l-23 24 -60 -32
c-49 -24 -56 -31 -38 -34 30 -5 28 -12 -12 -50 -41 -39 -46 -39 -46 -6 0 22
-3 24 -22 18 -34 -10 -56 -33 -63 -65 -4 -16 -11 -29 -16 -29 -13 0 -11 47 2
55 6 4 7 14 4 24 -9 20 -15 81 -9 81 3 0 14 -5 25 -10 16 -9 19 -7 19 8 0 22
-15 37 -47 45 -16 3 -23 1 -23 -9 0 -17 -5 -17 -31 -3 -18 9 -19 8 -11 -8 11
-21 0 -64 -12 -45 -8 13 -42 16 -50 4 -2 -4 1 -29 7 -55 8 -38 8 -50 -2 -56
-10 -7 -10 -13 -2 -29 16 -30 14 -82 -3 -82 -8 0 -18 5 -21 10 -8 13 -45 13
-45 0 0 -6 11 -16 25 -22 14 -6 25 -17 25 -25 0 -13 -47 -63 -85 -89 -19 -13
-18 -15 10 -44 26 -27 29 -28 40 -12 7 9 16 32 20 50 7 34 12 37 34 23 8 -5
10 -14 6 -22 -5 -8 -5 -11 0 -7 9 8 55 -44 55 -62 0 -9 8 -6 22 6 19 15 20 16
9 2 -11 -14 -11 -21 -1 -33 7 -8 16 -12 21 -9 5 3 9 2 8 -3 -4 -26 2 -33 20
-24 13 7 24 6 37 -4 22 -15 15 -27 -17 -29 -16 -1 -25 -10 -30 -29 -6 -24 -4
-29 17 -38 14 -5 30 -9 35 -9 5 0 15 -5 22 -10 7 -6 23 -19 37 -29 l25 -19
-32 -18 -32 -19 27 -30 27 -30 -30 25 c-16 13 -52 45 -80 70 l-50 45 39 -42
39 -42 -29 -11 c-16 -6 -41 -25 -56 -43 -26 -31 -28 -32 -55 -16 -15 9 -27 21
-25 27 2 14 -8 15 -26 4 -7 -5 -10 -15 -7 -23 12 -32 -61 -67 -99 -47 -27 15
-86 28 -86 19 0 -3 -10 -11 -22 -16 -26 -12 -38 -38 -12 -28 15 5 16 0 12 -50
-3 -32 -7 -59 -10 -63 -7 -6 -97 18 -194 54 l-72 26 34 50 c18 28 43 83 56
124 12 41 27 76 34 79 7 2 27 -3 44 -12 33 -17 52 -13 32 7 -7 7 -12 20 -12
29 0 19 -47 32 -53 15 -2 -6 -18 4 -35 22 -27 28 -33 31 -57 22 -14 -5 -44
-10 -65 -10 -21 0 -41 -6 -43 -12 -4 -10 -8 -9 -16 2 -8 12 -13 11 -34 -8 -16
-15 -36 -22 -64 -22 l-41 0 -8 58 c-4 31 -7 71 -8 87 0 17 -4 33 -10 37 -6 4
-5 21 3 49 l13 42 83 -7 c57 -4 86 -2 91 5 3 6 0 15 -7 20 -10 6 -8 9 8 9 20
0 21 2 11 25 -9 20 -8 28 5 43 23 25 21 60 -7 136 -14 35 -22 67 -19 70 4 3 2
6 -3 6 -9 0 -39 -26 -164 -144 -36 -33 -12 -7 53 59 64 66 117 125 117 131 0
7 -7 17 -15 24 -19 16 -20 31 -1 24 22 -9 48 24 36 46 -11 20 -1 33 17 22 6
-4 14 -17 18 -30 8 -28 30 -24 31 7 1 18 25 54 55 81 13 12 48 79 65 124 18
49 18 49 -4 67 -12 9 -25 31 -28 48 -6 26 -10 30 -28 25 -11 -3 -30 -15 -42
-25 -25 -23 -31 -24 -31 -4 0 8 4 15 8 15 5 0 6 7 3 15 -3 8 5 29 19 46 21 28
23 36 15 62 -13 35 0 47 49 47 18 0 44 5 57 12 21 9 29 8 44 -5 10 -9 51 -32
92 -51 71 -33 72 -49 1 -25 -18 6 -34 9 -36 7 -9 -9 40 -138 54 -143 8 -3 24
4 35 15 20 20 20 22 4 31 -10 6 -18 15 -18 22 0 7 4 6 10 -3 5 -8 10 -10 10
-5 0 6 4 3 10 -5 7 -11 20 -2 67 45 69 69 141 134 105 94 l-23 -26 38 -29 c21
-16 48 -39 60 -52 21 -22 24 -23 38 -8 17 16 21 16 65 -14 39 -26 66 -29 98
-10 61 37 74 117 28 168 -17 19 -21 36 -21 89 0 52 -4 67 -19 79 -14 10 -23
11 -33 3 -7 -6 -11 -14 -9 -18 3 -4 -5 -8 -16 -8 -12 -1 -39 -16 -62 -34 l-41
-32 40 43 c25 27 33 40 21 36 -20 -7 -61 30 -76 68 -8 22 12 52 29 41 22 -13
103 38 95 60 -4 9 9 14 43 17 69 6 78 1 56 -31 -13 -20 -4 -15 38 19 30 25 49
38 43 30 -21 -29 -24 -48 -6 -43 19 4 32 -19 57 -102 17 -57 34 -86 41 -69 21
51 162 197 182 189 19 -7 11 2 -72 92 -60 63 -76 74 -76 51 -1 -7 -20 -26 -43
-42 l-42 -28 44 45 c24 25 40 50 37 56 -5 7 -1 9 8 5 9 -3 16 -2 16 3 0 4 -39
9 -86 10 l-87 2 8 -37 c4 -20 9 -50 11 -67 4 -28 3 -27 -15 10 -11 22 -23 53
-26 68 l-6 28 -77 -3 -77 -3 -3 -39 c-2 -22 1 -36 6 -32 5 3 18 -4 28 -16 20
-23 20 -23 -29 -3 -7 3 -22 -14 -36 -46 -29 -60 -83 -108 -137 -124 -32 -9
-39 -16 -45 -43 -3 -17 -12 -39 -20 -48 -12 -15 -29 -41 -44 -70 -4 -7 5 -44
18 -85 l25 -72 -24 -26 c-13 -14 -24 -21 -24 -14 0 6 5 13 10 15 22 7 17 49
-12 103 -16 30 -33 77 -36 103 -6 39 -11 48 -30 50 -12 2 -22 -2 -22 -8 0 -7
-13 -10 -32 -8 -18 2 -32 8 -31 13 1 6 -8 20 -20 33 l-21 22 -38 -37 c-21 -20
-40 -34 -43 -32 -2 3 -1 20 4 37 5 18 7 32 4 32 -3 0 4 9 17 20 13 11 31 18
40 15 20 -6 112 52 141 89 11 13 19 31 19 40 0 9 7 19 15 22 23 9 18 27 -6 21
-13 -3 -28 2 -39 13 -12 12 -22 15 -25 9 -4 -5 -16 -7 -27 -3 -17 5 -20 3 -15
-10 11 -27 -38 -44 -72 -25 -24 14 -30 14 -49 1 -31 -21 -56 -8 -48 24 20 79
20 84 -6 84 -13 0 -32 -6 -41 -12z m953 -17 c0 -5 -8 -15 -17 -22 -16 -13 -17
-12 -5 3 10 13 10 17 0 21 -8 4 -7 6 5 6 9 1 17 -3 17 -8z m1614 -126 c-15
-20 -29 -34 -31 -31 -5 4 46 66 54 66 2 0 -8 -16 -23 -35z m6 -35 c-6 -11 -13
-20 -16 -20 -2 0 0 9 6 20 6 11 13 20 16 20 2 0 0 -9 -6 -20z m-45 -10 c3 -5
-1 -10 -10 -10 -9 0 -13 5 -10 10 3 6 8 10 10 10 2 0 7 -4 10 -10z m-2591
-203 c39 -29 63 -39 100 -41 19 -1 30 -7 32 -18 2 -14 -5 -18 -34 -18 -21 0
-44 5 -52 10 -12 8 -12 10 -1 10 8 0 12 3 9 6 -4 3 -17 -1 -30 -10 -19 -13
-30 -13 -61 -4 -24 7 -34 15 -28 22 4 6 11 23 15 39 8 33 11 33 50 4z m-104
-82 c0 -8 -7 -15 -15 -15 -8 0 -15 7 -15 15 0 8 7 15 15 15 8 0 15 -7 15 -15z
m710 2 c0 -2 -10 -12 -22 -23 l-23 -19 19 23 c18 21 26 27 26 19z m-755 -424
c3 -10 -1 -13 -12 -11 -9 2 -18 8 -20 14 -5 16 25 13 32 -3z m59 -229 c5 -14
4 -15 -9 -4 -17 14 -19 20 -6 20 5 0 12 -7 15 -16z m836 -208 c0 -3 -4 -8 -10
-11 -5 -3 -10 -1 -10 4 0 6 5 11 10 11 6 0 10 -2 10 -4z m49 -72 c-30 -31 -67
-65 -84 -76 -16 -12 6 16 49 60 44 45 82 79 85 76 3 -2 -20 -29 -50 -60z m-44
-4 c-10 -11 -24 -20 -32 -20 -9 0 -11 -5 -7 -12 5 -9 2 -8 -9 1 -10 8 -15 17
-12 20 5 5 61 28 74 30 2 1 -4 -8 -14 -19z m-1220 -410 c10 -11 16 -20 13 -20
-3 0 -13 9 -23 20 -10 11 -16 20 -13 20 3 0 13 -9 23 -20z m75 -75 c13 -14 21
-25 18 -25 -2 0 -15 11 -28 25 -13 14 -21 25 -18 25 2 0 15 -11 28 -25z m1250
-68 c0 -4 -10 -2 -22 4 -31 16 -29 14 -22 34 6 16 9 15 25 -6 10 -13 19 -28
19 -32z m-1000 -43 c0 -23 -9 -28 -37 -25 -12 2 -17 -19 -16 -56 1 -9 -4 -10
-19 -2 -15 8 -22 7 -33 -7 -7 -10 -11 -24 -8 -31 7 -17 -17 -16 -39 1 -24 18
-23 30 2 23 15 -4 20 0 20 13 0 10 6 20 13 23 9 3 7 9 -5 24 -23 25 -23 36 0
22 15 -10 26 -6 62 19 47 35 60 34 60 -4z m-329 2 c5 3 9 -2 9 -10 0 -18 -30
-36 -59 -36 -12 0 -21 -7 -21 -15 0 -8 -5 -15 -11 -15 -6 0 -8 7 -5 16 3 8 2
12 -4 9 -12 -8 -13 15 -1 33 10 16 74 32 79 20 2 -4 8 -6 13 -2z m844 -36
c-27 -12 -35 -12 -35 0 0 6 12 10 28 9 24 0 25 -1 7 -9z m-765 -74 c0 -32 -24
-61 -44 -53 -22 9 -16 52 9 71 24 17 35 12 35 -18z m748 -22 c32 -9 26 -48 -8
-52 -14 -2 -34 -12 -45 -22 -27 -25 -27 -25 -52 -12 -27 15 -28 55 -1 46 13
-4 18 0 18 16 0 12 4 18 10 15 5 -3 18 -1 27 4 21 12 22 12 51 5z m22 -179 c0
-8 -9 -19 -21 -25 -20 -11 -20 -11 -4 14 20 30 25 32 25 11z m-530 -125 c0 -5
-2 -10 -4 -10 -3 0 -8 5 -11 10 -3 6 -1 10 4 10 6 0 11 -4 11 -10z m-60 -13
c0 -2 -9 -12 -20 -22 -24 -21 -27 -14 -4 9 15 15 24 20 24 13z m113 -17 c-3
-11 -7 -20 -9 -20 -2 0 -4 9 -4 20 0 11 4 20 9 20 5 0 7 -9 4 -20z m-938 0 c3
-5 1 -10 -4 -10 -6 0 -11 5 -11 10 0 6 2 10 4 10 3 0 8 -4 11 -10z m873 -20
c-8 -25 -28 -51 -28 -37 0 15 24 67 30 67 5 0 4 -14 -2 -30z m296 15 c-7 -16
-24 -21 -24 -6 0 8 7 13 27 20 1 1 0 -6 -3 -14z m-259 -37 c-6 -22 -6 -22 9
-4 9 11 16 15 16 9 0 -6 -6 -16 -14 -22 -17 -14 -29 0 -20 23 9 24 16 19 9 -6z
m94 -22 c-9 -8 -10 -7 -5 7 3 10 7 24 7 30 1 7 3 4 6 -7 3 -10 -1 -23 -8 -30z
m-362 28 c-3 -3 -12 -4 -19 -1 -8 3 -5 6 6 6 11 1 17 -2 13 -5z m-529 -75 c-6
-16 -12 -28 -14 -26 -5 5 13 57 20 57 3 0 0 -14 -6 -31z m209 5 c-3 -3 -12 -4
-19 -1 -8 3 -5 6 6 6 11 1 17 -2 13 -5z m43 -11 c-1 -13 -39 -79 -40 -69 0 18
24 76 32 76 4 0 8 -3 8 -7z m60 -20 c0 -5 -10 -21 -21 -38 -12 -17 -18 -21
-14 -10 4 11 10 28 12 38 5 17 23 24 23 10z m65 -13 c3 -5 12 -7 21 -3 12 4
13 1 4 -22 -6 -15 -7 -32 -3 -38 3 -7 3 -9 -2 -5 -4 4 -14 0 -22 -10 -8 -9
-12 -12 -9 -6 13 26 15 73 4 80 -6 4 -9 3 -5 -2 3 -5 -6 -27 -19 -49 -27 -46
-31 -34 -8 25 16 40 27 49 39 30z m59 -31 c-21 -23 -25 -21 -18 8 4 14 11 20
20 16 13 -5 12 -8 -2 -24z m183 1 c22 0 23 -1 9 -16 -9 -8 -16 -26 -16 -39 0
-12 -7 -25 -15 -28 -11 -5 -12 -1 -4 19 5 14 7 29 4 34 -3 5 1 11 7 14 7 3 4
5 -7 3 -11 -1 -21 -11 -23 -21 -3 -11 0 -16 7 -12 7 5 8 1 4 -9 -4 -12 -8 -13
-13 -5 -5 9 -10 6 -14 -8 -5 -13 -13 -19 -22 -15 -12 4 -11 8 6 20 11 8 20 19
20 25 0 6 -9 3 -20 -7 -11 -10 -22 -16 -25 -14 -8 8 7 49 16 43 5 -3 6 3 2 12
-5 15 -2 16 27 11 18 -4 44 -7 57 -7z m101 -17 c-10 -2 -26 -2 -35 0 -10 3 -2
5 17 5 19 0 27 -2 18 -5z m239 -10 c-7 -7 -128 -5 -136 2 -2 3 29 5 69 5 40 0
70 -3 67 -7z m40 1 c-3 -3 -12 -4 -19 -1 -8 3 -5 6 6 6 11 1 17 -2 13 -5z m-9
-54 c-12 -35 -23 -41 -12 -7 4 12 7 27 7 34 0 7 4 10 8 7 4 -2 3 -18 -3 -34z
m59 14 c2 -10 0 -13 -3 -6 -5 10 -9 9 -19 -5 -18 -24 -30 -11 -15 17 13 25 34
22 37 -6z m-207 12 c0 -11 -19 -15 -25 -6 -3 5 1 10 9 10 9 0 16 -2 16 -4z
m47 -38 c-3 -8 -6 -5 -6 6 -1 11 2 17 5 13 3 -3 4 -12 1 -19z m46 7 c-3 -9 -8
-14 -10 -11 -3 3 -2 9 2 15 9 16 15 13 8 -4z m30 -5 c-3 -11 -9 -20 -15 -20
-5 0 -4 9 2 20 6 11 12 20 14 20 2 0 2 -9 -1 -20z m-143 6 c0 -3 -4 -8 -10
-11 -5 -3 -10 -1 -10 4 0 6 5 11 10 11 6 0 10 -2 10 -4z"/>
<path d="M3800 1089 c0 -5 5 -7 10 -4 6 3 10 8 10 11 0 2 -4 4 -10 4 -5 0 -10
-5 -10 -11z"/>
<path d="M3755 1060 c-3 -5 -1 -10 4 -10 6 0 11 5 11 10 0 6 -2 10 -4 10 -3 0
-8 -4 -11 -10z"/>
<path d="M3697 3240 c3 -20 1 -30 -6 -30 -7 0 -10 -4 -6 -10 9 -15 53 10 59
33 6 23 -8 37 -36 37 -14 0 -16 -6 -11 -30z"/>
<path d="M5200 3260 c8 -5 20 -10 25 -10 6 0 3 5 -5 10 -8 5 -19 10 -25 10 -5
0 -3 -5 5 -10z"/>
<path d="M5570 3241 c-11 -17 -27 -46 -36 -67 -14 -33 -14 -36 1 -31 13 5 14
3 5 -13 -5 -10 -7 -26 -3 -35 5 -14 2 -16 -16 -10 -16 5 -30 0 -49 -17 -24
-20 -24 -19 3 10 27 30 28 33 12 49 -9 10 -17 12 -17 6 0 -6 -10 -13 -22 -16
-17 -5 -19 -9 -9 -20 9 -12 8 -16 -8 -20 -11 -2 -24 0 -29 5 -6 6 -12 6 -16
-1 -4 -6 -16 -11 -27 -11 -14 0 -19 7 -19 24 0 27 33 56 64 56 23 0 45 27 46
57 0 22 -21 44 -27 27 -13 -35 -22 -39 -52 -21 -43 25 -51 22 -44 -19 6 -35 5
-36 -18 -28 -13 4 -32 8 -41 8 -10 0 -18 4 -18 9 0 4 -6 5 -12 0 -7 -4 -23 -6
-34 -5 -12 2 -24 -4 -28 -13 -3 -9 -10 -13 -16 -10 -5 3 -10 1 -10 -5 0 -12
-59 -40 -84 -40 -7 0 -16 10 -20 22 -4 18 -8 20 -18 10 -19 -19 -48 -15 -48 7
0 29 -47 45 -83 28 -14 -6 -25 -3 -43 14 l-24 22 0 -27 c0 -23 -3 -26 -20 -21
-23 7 -78 -19 -61 -29 6 -4 9 -17 6 -29 -4 -16 7 -35 40 -72 25 -27 45 -55 45
-61 0 -6 -31 -42 -70 -80 -82 -81 -95 -113 -53 -131 89 -39 117 -70 96 -106
-7 -13 -12 -14 -38 -1 -16 7 -38 19 -48 26 -16 11 -23 8 -57 -29 -60 -63 -54
-108 15 -116 22 -3 56 -8 75 -11 23 -4 28 -4 16 2 -20 9 -20 9 0 13 10 3 35 2
54 -1 l35 -7 -30 -13 c-24 -10 -26 -14 -12 -17 12 -3 17 -12 15 -26 -4 -29
-46 -34 -90 -11 -55 29 -85 28 -99 -4 -6 -15 -34 -45 -60 -66 -27 -22 -49 -43
-49 -48 0 -15 29 -8 47 11 10 11 31 25 47 31 25 9 31 8 43 -10 11 -16 18 -18
28 -10 8 6 11 18 8 26 -6 15 14 19 35 5 11 -7 10 -9 -3 -15 -9 -3 -13 -11 -9
-17 4 -7 3 -10 -2 -7 -10 7 -36 -17 -28 -25 9 -9 -37 -29 -52 -23 -8 3 -13 2
-9 -3 3 -5 1 -21 -5 -35 -5 -14 -7 -26 -3 -26 4 0 77 69 162 153 86 83 120
114 77 67 -44 -47 -108 -113 -142 -147 -40 -39 -62 -67 -58 -76 7 -20 82 -39
105 -26 10 5 19 19 21 31 3 20 9 23 45 23 30 0 46 6 56 19 8 11 34 29 58 41
41 19 44 23 41 55 -2 26 5 44 27 71 27 32 37 36 109 48 44 7 86 10 92 6 9 -6
9 -3 2 11 -10 19 -70 77 -127 124 l-30 25 23 -26 c12 -14 22 -28 22 -31 0 -4
-24 -4 -52 1 -5 0 -8 9 -8 18 0 12 -16 3 -52 -32 -49 -46 -48 -45 7 12 l59 63
-35 37 c-93 102 -106 127 -25 51 16 -15 33 -25 38 -22 4 3 20 8 35 10 41 8 45
14 38 50 -6 34 0 41 21 26 22 -15 21 -38 -5 -67 l-26 -30 25 20 c14 11 45 37
69 60 43 39 48 32 8 -12 -11 -13 -15 -23 -9 -23 6 0 13 4 17 9 3 5 19 13 37
16 17 4 50 25 74 47 41 38 44 39 44 18 0 -14 -16 -38 -40 -61 -22 -21 -40 -41
-40 -44 0 -3 18 -5 39 -5 42 0 63 -16 40 -30 -7 -5 -14 -26 -15 -48 -3 -63
-13 -84 -37 -80 -12 1 -33 -5 -47 -15 -31 -22 -36 -21 -60 3 -12 12 -25 18
-31 14 -15 -9 32 -56 49 -49 7 2 11 1 8 -4 -3 -5 4 -11 15 -14 14 -4 19 -1 16
7 -4 9 2 11 19 8 13 -2 24 -8 24 -12 0 -4 17 -12 38 -18 36 -11 43 -9 97 20
32 17 55 27 52 21 -9 -15 13 -31 46 -35 24 -2 31 2 42 30 l14 32 -32 0 c-32 0
-33 1 -29 37 4 30 2 35 -12 30 -10 -4 -16 -1 -16 9 0 8 4 12 10 9 5 -3 22 6
36 20 29 29 41 28 25 -2 -9 -19 -8 -19 25 -9 18 6 34 14 34 18 0 4 -6 5 -13 2
-17 -6 -19 28 -3 38 6 4 19 5 29 2 22 -7 24 28 2 46 -22 18 -18 44 8 55 12 6
23 20 25 31 2 14 17 28 43 40 30 13 42 25 46 46 5 23 8 26 24 17 12 -6 19 -6
19 0 0 16 -15 21 -74 23 -54 3 -56 4 -54 29 1 17 7 25 15 22 7 -3 13 0 13 6 0
15 27 14 32 0 5 -14 58 -22 58 -8 0 5 -4 9 -10 9 -21 0 -9 20 15 26 26 6 29
12 19 38 -4 11 -19 16 -43 16 -20 0 -43 6 -50 13 -8 6 -5 -1 5 -18 l18 -30
-37 34 c-41 39 -46 57 -18 66 10 3 23 15 29 28 8 16 11 18 11 5 1 -14 5 -14
26 -5 36 17 25 32 -23 33 -32 1 -43 -3 -47 -17 -8 -25 -25 -24 -25 1 0 24 -13
26 -30 5 -11 -13 -9 -20 10 -40 38 -41 15 -28 -29 15 -22 22 -42 40 -45 40 -3
0 -14 -13 -26 -29z m-130 -204 c0 -2 -10 -12 -22 -23 l-23 -19 19 23 c18 21
26 27 26 19z m-282 -62 c32 -9 28 -29 -5 -21 -18 4 -23 3 -14 -2 8 -6 9 -12 3
-16 -5 -3 -17 5 -26 19 -20 31 -20 38 2 31 9 -2 27 -7 40 -11z m266 -34 c8
-12 -3 -41 -15 -41 -5 0 -9 11 -9 25 0 25 14 34 24 16z m-539 -51 c10 -11 16
-20 13 -20 -3 0 -13 9 -23 20 -10 11 -16 20 -13 20 3 0 13 -9 23 -20z m228
-20 c-7 -27 -13 -25 -11 4 1 14 5 23 9 20 4 -2 5 -13 2 -24z m93 -25 c-1 -8
-8 -21 -16 -28 -7 -6 -11 -7 -8 -2 3 6 8 18 11 28 8 21 16 23 13 2z m-191
-115 c3 -6 -4 -10 -17 -10 -13 0 -18 -3 -12 -8 6 -4 15 -21 18 -39 6 -25 3
-34 -12 -42 -20 -11 -21 -9 -26 59 -2 34 7 50 31 50 6 0 15 -4 18 -10z m465
-95 c0 -16 -34 -38 -44 -28 -6 7 23 41 37 42 4 1 7 -6 7 -14z"/>
<path d="M5635 3260 c-3 -5 -2 -10 4 -10 5 0 13 5 16 10 3 6 2 10 -4 10 -5 0
-13 -4 -16 -10z"/>
<path d="M3376 3244 c-4 -9 -4 -19 -2 -21 8 -8 26 8 26 23 0 19 -16 18 -24 -2z"/>
<path d="M4070 3250 c0 -6 -11 -8 -25 -4 -23 6 -25 3 -27 -27 -1 -19 -1 -47 0
-63 3 -34 -31 -76 -60 -76 -15 0 -19 -6 -16 -27 5 -39 22 -39 68 3 51 46 86
106 94 162 6 38 4 42 -14 42 -11 0 -20 -5 -20 -10z"/>
<path d="M4912 3248 c6 -18 25 -20 31 -3 5 10 0 15 -14 15 -12 0 -19 -5 -17
-12z"/>
<path d="M5902 3235 c0 -16 2 -22 5 -12 2 9 2 23 0 30 -3 6 -5 -1 -5 -18z"/>
<path d="M2914 3231 c-2 -2 -4 -14 -4 -27 0 -12 -6 -24 -14 -27 -10 -4 -14
-21 -13 -53 0 -28 -5 -50 -11 -52 -8 -2 -7 -8 3 -19 22 -22 47 1 43 40 -4 38
22 58 53 39 12 -8 19 -10 16 -5 -2 4 -1 31 2 60 l7 52 -39 -2 c-21 -1 -40 -4
-43 -6z"/>
<path d="M6084 3198 l-19 -23 23 19 c12 11 22 21 22 23 0 8 -8 2 -26 -19z"/>
<path d="M5914 3186 c-3 -8 -4 -25 -2 -38 3 -17 5 -13 9 15 5 38 2 47 -7 23z"/>
<path d="M5710 3181 c0 -5 5 -13 10 -16 6 -3 10 -2 10 4 0 5 -4 13 -10 16 -5
3 -10 2 -10 -4z"/>
<path d="M3024 3159 c-3 -6 -1 -16 5 -22 8 -8 11 -5 11 11 0 24 -5 28 -16 11z"/>
<path d="M3340 3135 c-11 -13 -8 -15 13 -15 19 0 25 4 21 15 -4 8 -10 15 -14
15 -4 0 -13 -7 -20 -15z"/>
<path d="M4685 3120 c-19 -8 -19 -9 3 -9 12 -1 22 4 22 9 0 6 -1 10 -2 9 -2 0
-12 -4 -23 -9z"/>
<path d="M2126 3085 c-8 -9 -18 -16 -21 -15 -34 2 -51 -5 -76 -32 -17 -20 -27
-39 -24 -49 4 -11 -6 -31 -25 -52 -58 -66 -29 -48 61 40 81 78 119 123 105
123 -2 0 -11 -7 -20 -15z"/>
<path d="M2726 3091 c-9 -14 13 -85 35 -114 12 -16 15 -26 8 -22 -8 5 -5 -1 5
-13 28 -32 38 -27 32 14 -4 24 -1 45 11 65 14 23 15 31 5 41 -16 16 -91 38
-96 29z"/>
<path d="M5900 3078 c0 -9 5 -20 10 -23 13 -8 13 5 0 25 -8 13 -10 13 -10 -2z"/>
<path d="M5890 2966 c0 -2 7 -9 15 -16 13 -11 14 -10 9 4 -5 14 -24 23 -24 12z"/>
<path d="M2659 2930 c25 -21 41 -26 41 -11 0 5 -15 14 -32 20 l-33 11 24 -20z"/>
<path d="M5888 2875 c-13 -17 -14 -25 -5 -28 8 -3 2 -15 -17 -33 -16 -16 -26
-23 -22 -16 4 6 2 12 -3 12 -6 0 -11 -6 -11 -14 0 -7 -3 -29 -6 -47 l-6 -34
26 30 c33 36 59 92 50 106 -3 5 0 17 7 25 6 8 10 16 8 18 -2 2 -12 -6 -21 -19z"/>
<path d="M5855 2880 c3 -5 8 -10 11 -10 2 0 4 5 4 10 0 6 -5 10 -11 10 -5 0
-7 -4 -4 -10z"/>
<path d="M4485 2861 c-7 -13 56 -111 72 -111 22 0 26 40 6 62 -30 34 -71 59
-78 49z"/>
<path d="M5841 2854 c0 -11 3 -14 6 -6 3 7 2 16 -1 19 -3 4 -6 -2 -5 -13z"/>
<path d="M4420 2826 c0 -9 5 -16 10 -16 6 0 10 4 10 9 0 6 -4 13 -10 16 -5 3
-10 -1 -10 -9z"/>
<path d="M5176 2765 c-4 -13 20 -35 38 -35 11 0 6 21 -8 36 -18 18 -22 18 -30
-1z"/>
<path d="M1927 2755 c-9 -9 -28 -22 -42 -29 l-26 -14 35 -22 c40 -24 59 -19
54 13 -1 12 1 28 6 35 13 22 -9 36 -27 17z"/>
<path d="M5090 2715 c-8 -9 -8 -15 -2 -15 12 0 26 19 19 26 -2 2 -10 -2 -17
-11z"/>
<path d="M5819 2673 c-13 -16 -12 -17 4 -4 9 7 17 15 17 17 0 8 -8 3 -21 -13z"/>
<path d="M5827 2652 c-15 -15 -27 -35 -27 -43 0 -14 29 16 51 54 14 24 7 21
-24 -11z"/>
<path d="M3970 2666 c0 -2 8 -10 18 -17 15 -13 16 -12 3 4 -13 16 -21 21 -21
13z"/>
<path d="M3926 2619 c-14 -11 -26 -26 -25 -32 0 -7 2 -8 5 -2 6 14 134 7 153
-9 12 -9 12 -8 3 10 -10 19 -76 54 -101 54 -5 0 -20 -9 -35 -21z"/>
<path d="M3876 2571 c-3 -5 1 -12 10 -15 22 -8 25 -4 9 11 -8 7 -16 9 -19 4z"/>
<path d="M4090 2535 c0 -10 -5 -13 -12 -9 -7 4 -8 3 -4 -5 11 -17 -18 -58 -41
-58 -24 -1 -65 37 -59 54 3 7 -1 13 -8 13 -8 0 -21 3 -30 6 -9 3 -16 1 -16 -5
0 -15 60 -71 76 -71 21 0 75 -92 63 -106 -6 -7 -5 -22 2 -40 15 -36 12 -62
-12 -95 -10 -14 -16 -29 -12 -33 3 -3 1 -6 -6 -6 -7 0 -10 -4 -7 -9 11 -18 42
1 64 39 23 40 52 46 52 10 0 -25 34 -65 49 -56 8 5 5 16 -11 39 -13 17 -24 49
-25 71 -2 33 2 46 28 72 35 36 63 40 94 13 18 -15 21 -16 34 -2 12 13 11 14
-7 9 -15 -5 -26 1 -46 26 -41 54 -166 161 -166 143z"/>
<path d="M5810 2535 c-7 -9 -11 -17 -9 -20 3 -2 10 5 17 15 14 24 10 26 -8 5z"/>
<path d="M4255 2532 c-55 -11 -64 -59 -20 -102 32 -31 34 -31 62 -17 16 9 35
23 42 31 11 13 9 17 -11 25 -26 10 -44 28 -49 51 -3 10 -12 14 -24 12z"/>
<path d="M3826 2523 c-10 -10 -7 -25 4 -18 6 3 10 2 10 -4 0 -11 39 -35 46
-28 2 2 -9 15 -25 30 -16 14 -32 23 -35 20z"/>
<path d="M4320 2511 c0 -5 8 -17 17 -26 15 -16 18 -16 28 -1 7 9 18 16 24 16
7 0 9 5 6 10 -8 13 -75 13 -75 1z"/>
<path d="M3760 2499 c0 -5 5 -7 10 -4 6 3 10 8 10 11 0 2 -4 4 -10 4 -5 0 -10
-5 -10 -11z"/>
<path d="M5776 2493 c-6 -14 -5 -15 5 -6 7 7 10 15 7 18 -3 3 -9 -2 -12 -12z"/>
<path d="M5347 2483 c-4 -3 -7 -10 -7 -14 0 -11 29 -19 35 -10 6 11 -20 33
-28 24z"/>
<path d="M5781 2455 c-17 -20 -31 -41 -31 -48 0 -12 41 32 60 66 17 27 5 20
-29 -18z"/>
<path d="M2816 2461 c-23 -25 -21 -28 27 -36 58 -10 60 -12 37 -49 -19 -31
-19 -34 -2 -48 34 -31 103 -33 73 -2 -11 10 -21 84 -12 84 3 0 15 -7 25 -15
27 -21 46 -19 46 5 0 20 -43 49 -70 48 -45 -3 -80 4 -93 17 -13 12 -17 12 -31
-4z"/>
<path d="M6002 2440 c-35 -42 -43 -63 -14 -37 10 10 22 14 26 10 4 -5 6 -3 5
2 -2 6 3 21 10 33 20 38 9 34 -27 -8z"/>
<path d="M5517 2449 c-20 -12 -23 -35 -4 -42 8 -4 7 -6 -3 -6 -9 -1 -27 -19
-40 -41 -14 -22 -29 -38 -35 -36 -5 1 -17 -6 -25 -17 -10 -12 -28 -19 -52 -19
-22 0 -39 -6 -42 -14 -3 -8 -12 -14 -21 -14 -8 0 -15 -6 -15 -14 0 -8 -3 -22
-7 -32 -5 -13 -3 -15 8 -9 12 8 12 6 0 -8 -10 -13 -11 -20 -2 -30 8 -11 5 -17
-15 -26 -25 -11 -26 -10 -22 14 5 24 4 25 -16 12 -11 -8 -26 -24 -32 -36 -6
-11 -14 -18 -17 -14 -4 3 -7 1 -7 -6 0 -7 -5 -9 -11 -6 -6 4 -8 13 -5 21 8 21
-4 44 -24 44 -27 0 -99 -41 -105 -60 -3 -10 -1 -29 4 -43 9 -23 5 -31 -43 -79
-30 -30 -59 -69 -65 -91 -9 -25 -20 -39 -36 -43 -41 -10 -38 -33 12 -85 27
-27 54 -49 61 -49 6 0 22 11 34 25 11 13 26 22 31 18 6 -3 7 -1 3 6 -5 7 5 23
25 40 33 29 33 51 -2 51 -14 0 -19 -7 -19 -24 0 -14 -4 -28 -10 -31 -5 -3 -10
-1 -10 6 0 6 -7 17 -16 24 -16 11 -16 14 2 44 17 29 22 32 54 26 19 -4 47 -13
63 -22 32 -16 57 -11 57 12 0 8 5 15 10 15 15 0 12 28 -5 37 -13 8 -13 11 1
31 8 12 21 22 29 22 8 0 19 9 25 20 8 15 21 20 56 20 27 0 52 6 61 15 15 15
38 11 28 -5 -9 -15 34 -32 58 -24 12 5 26 7 31 6 5 -2 6 4 2 13 -3 9 -6 19 -6
22 0 3 -12 -3 -27 -12 -16 -10 -25 -15 -21 -11 12 14 -12 61 -42 81 -30 20
-23 37 12 27 13 -3 17 -10 13 -21 -3 -8 9 2 28 24 34 39 34 40 13 49 -11 5
-23 9 -26 8 -3 0 -5 10 -5 22 2 26 29 69 38 59 4 -3 7 1 7 11 0 10 12 21 30
27 16 6 29 14 28 17 -1 4 8 25 19 48 24 44 19 69 -10 53z m-87 -268 c0 -6 -4
-13 -10 -16 -5 -3 -10 1 -10 9 0 9 5 16 10 16 6 0 10 -4 10 -9z m-115 -51 c-3
-5 -14 -10 -23 -10 -15 0 -15 2 -2 10 20 13 33 13 25 0z"/>
<path d="M5357 2429 c7 -7 15 -10 18 -7 3 3 -2 9 -12 12 -14 6 -15 5 -6 -5z"/>
<path d="M5336 2396 c-9 -35 -2 -42 25 -30 21 10 21 10 1 34 l-19 23 -7 -27z"/>
<path d="M5769 2397 c-13 -10 -56 -115 -51 -124 1 -2 -8 -24 -18 -50 l-20 -48
30 33 c17 18 28 37 25 42 -3 5 -1 11 5 15 5 3 10 11 10 16 0 6 -4 7 -10 4 -13
-8 -12 -5 1 34 6 17 15 31 19 31 4 0 13 14 19 30 5 17 9 30 8 30 -1 0 -9 -6
-18 -13z"/>
<path d="M5999 2383 c-13 -16 -12 -17 4 -4 16 13 21 21 13 21 -2 0 -10 -8 -17
-17z"/>
<path d="M3050 2370 c0 -11 4 -20 9 -20 11 0 22 26 14 34 -12 12 -23 5 -23
-14z"/>
<path d="M5437 2376 c-4 -10 -1 -13 8 -9 8 3 12 9 9 14 -7 12 -11 11 -17 -5z"/>
<path d="M4234 2347 c-8 -21 -3 -29 13 -19 8 5 9 13 3 22 -7 12 -10 12 -16 -3z"/>
<path d="M5957 2331 c-11 -14 -10 -14 6 -2 26 21 20 1 -10 -33 l-28 -31 28 25
c38 33 51 57 31 57 -8 0 -20 -7 -27 -16z"/>
<path d="M1925 2330 c-3 -5 -1 -10 4 -10 6 0 11 5 11 10 0 6 -2 10 -4 10 -3 0
-8 -4 -11 -10z"/>
<path d="M1870 2294 c-22 -30 -51 -49 -35 -24 9 14 -28 13 -42 -1 -9 -9 -8
-18 4 -35 13 -21 14 -24 0 -24 -8 0 -17 -6 -20 -14 -4 -9 0 -12 13 -9 10 3 32
-2 49 -10 28 -14 31 -13 52 9 25 27 32 86 14 120 -10 21 -11 20 -35 -12z"/>
<path d="M3000 2302 c0 -4 9 -13 21 -20 19 -12 19 -11 9 8 -10 19 -30 28 -30
12z"/>
<path d="M3525 2258 l-40 -43 43 40 c39 36 47 45 39 45 -2 0 -21 -19 -42 -42z"/>
<path d="M4500 2275 l-23 -25 26 13 c15 6 27 18 27 25 0 17 -3 16 -30 -13z"/>
<path d="M5067 2263 c-12 -12 -7 -41 9 -58 14 -13 19 -14 33 -2 9 7 28 18 44
25 49 21 28 42 -42 42 -21 0 -41 -3 -44 -7z"/>
<path d="M5882 2226 c-17 -17 -32 -34 -32 -38 0 -4 16 8 36 28 20 19 35 36 33
38 -2 2 -19 -10 -37 -28z"/>
<path d="M3867 2243 c-7 -12 11 -53 23 -53 21 0 51 21 45 31 -4 5 -11 7 -16 3
-6 -3 -19 2 -29 11 -10 9 -20 13 -23 8z"/>
<path d="M5921 2219 c-13 -11 -22 -22 -19 -24 2 -3 15 6 28 20 28 30 24 32 -9
4z"/>
<path d="M4251 2204 c0 -11 3 -14 6 -6 3 7 2 16 -1 19 -3 4 -6 -2 -5 -13z"/>
<path d="M2627 2193 c-4 -3 -7 -26 -7 -50 0 -53 18 -64 66 -38 41 22 47 50 9
41 -20 -5 -25 -3 -25 14 0 11 6 20 13 20 18 0 -14 20 -34 20 -9 0 -19 -3 -22
-7z"/>
<path d="M4534 2187 c-6 -7 -8 -21 -4 -31 5 -17 7 -17 20 -1 9 11 15 13 20 4
4 -6 8 0 8 15 0 28 -24 35 -44 13z"/>
<path d="M5860 2145 c-13 -14 -22 -27 -19 -29 2 -2 14 10 27 25 29 36 24 38
-8 4z"/>
<path d="M2502 2148 c-7 -7 -12 -19 -11 -27 1 -19 67 -77 76 -67 6 5 -29 78
-46 99 -4 4 -12 2 -19 -5z"/>
<path d="M5670 2145 c-7 -9 -11 -17 -9 -20 3 -2 10 5 17 15 14 24 10 26 -8 5z"/>
<path d="M3487 2088 c7 -28 52 -78 70 -78 7 0 13 9 13 20 0 13 -7 20 -20 20
-21 0 -28 24 -10 35 17 11 0 25 -30 25 -24 0 -27 -3 -23 -22z"/>
<path d="M4530 2106 c0 -2 8 -10 18 -17 15 -13 16 -12 3 4 -13 16 -21 21 -21
13z"/>
<path d="M5585 2099 c-11 -17 1 -21 15 -4 8 9 8 15 2 15 -6 0 -14 -5 -17 -11z"/>
<path d="M3667 2072 c-39 -20 -45 -27 -32 -34 22 -13 47 -3 80 32 35 37 18 38
-48 2z"/>
<path d="M5490 2089 c0 -9 32 -23 48 -20 10 2 8 -6 -4 -26 l-17 -28 23 22 c23
22 23 24 7 40 -17 17 -57 26 -57 12z"/>
<path d="M2713 2078 c-13 -6 -23 -15 -23 -20 0 -13 13 -9 40 12 27 21 18 25
-17 8z"/>
<path d="M3050 2083 c0 -5 -8 -10 -17 -11 -64 -7 -98 -17 -120 -38 -14 -13
-31 -24 -37 -24 -7 0 -11 -23 -11 -60 0 -43 3 -56 11 -47 6 7 41 47 78 89 38
43 72 75 77 72 5 -3 16 -1 25 4 11 6 13 11 5 16 -6 4 -11 3 -11 -1z"/>
<path d="M2728 2038 c15 -15 3 -38 -19 -38 -11 0 -30 -7 -44 -16 -18 -12 -28
-13 -44 -4 -12 6 -21 15 -21 20 0 15 -17 12 -34 -5 -8 -8 -20 -15 -26 -15 -7
0 -10 -6 -7 -14 3 -7 0 -19 -6 -25 -9 -10 -4 -19 20 -41 32 -29 33 -29 63 -12
24 14 33 15 49 5 13 -8 22 -9 26 -3 3 6 21 10 38 10 43 1 67 21 67 57 0 16 6
35 13 42 10 11 9 14 -1 18 -7 3 -18 10 -25 17 -6 6 -23 12 -36 13 -17 2 -21
-1 -13 -9z"/>
<path d="M3484 2013 c3 -21 6 -48 6 -60 0 -19 16 -32 48 -39 15 -3 16 20 1 49
-9 18 -9 20 2 10 31 -30 27 -9 -7 32 -45 55 -58 57 -50 8z"/>
<path d="M4810 2025 c0 -16 12 -18 48 -9 34 10 26 24 -13 24 -24 0 -35 -5 -35
-15z"/>
<path d="M1078 1971 c-9 -22 -13 -41 -8 -41 10 0 33 56 28 71 -2 6 -11 -7 -20
-30z"/>
<path d="M3656 1979 c-14 -11 -26 -29 -26 -40 0 -31 18 -22 39 21 10 22 18 40
16 40 -1 0 -14 -9 -29 -21z"/>
<path d="M5535 1990 c-3 -5 -1 -10 4 -10 6 0 11 5 11 10 0 6 -2 10 -4 10 -3 0
-8 -4 -11 -10z"/>
<path d="M2430 1960 c-6 -11 -8 -20 -6 -20 3 0 10 9 16 20 6 11 8 20 6 20 -3
0 -10 -9 -16 -20z"/>
<path d="M3681 1931 c-11 -11 -22 -17 -25 -13 -3 3 -6 1 -6 -5 0 -5 11 -20 25
-33 l25 -24 22 22 c20 19 20 24 8 47 -16 30 -24 31 -49 6z"/>
<path d="M1108 1870 c-15 -49 -26 -69 -36 -65 -15 6 -16 6 46 -90 84 -130 182
-255 285 -363 l59 -63 46 45 c25 25 43 48 40 51 -3 3 -24 -13 -46 -37 -23 -23
-44 -39 -48 -35 -4 3 -1 13 5 21 9 10 9 20 3 32 -9 16 -10 15 -16 -4 -4 -12
-12 -22 -18 -22 -5 0 -7 7 -4 16 3 8 2 12 -4 9 -5 -3 -18 8 -28 24 -10 17 -21
29 -24 26 -3 -3 -13 4 -23 14 -14 17 -15 25 -7 51 14 37 6 40 -10 3 l-11 -28
-10 32 c-8 26 -6 39 11 70 11 21 25 37 31 36 16 -4 13 5 -9 29 -11 12 -26 34
-32 50 -7 15 -16 28 -19 28 -4 0 -16 -27 -28 -61 -13 -33 -25 -59 -27 -56 -3
2 7 34 21 69 l26 65 -25 43 -25 44 -10 -28 c-6 -15 -11 -31 -11 -36 0 -5 -5
-21 -12 -35 -8 -18 -14 -22 -20 -13 -6 10 -8 10 -8 1 0 -20 -18 -15 -25 6 -6
19 20 85 43 109 6 7 12 16 12 19 0 14 -36 80 -51 95 -17 17 -19 15 -41 -52z
m29 28 c-3 -8 -6 -5 -6 6 -1 11 2 17 5 13 3 -3 4 -12 1 -19z m-12 -60 c-6 -42
-19 -67 -30 -56 -5 5 26 98 33 98 1 0 0 -19 -3 -42z m17 -40 c-7 -7 -12 -8
-12 -2 0 14 12 26 19 19 2 -3 -1 -11 -7 -17z m178 -172 c0 -21 -22 -80 -35
-94 -10 -11 -13 -9 -17 12 -3 14 -2 26 2 26 5 0 6 10 3 23 -4 17 -2 19 5 8 9
-12 12 -10 17 12 7 28 25 37 25 13z"/>
<path d="M5509 1913 c-13 -16 -12 -17 4 -4 16 13 21 21 13 21 -2 0 -10 -8 -17
-17z"/>
<path d="M3620 1895 c0 -8 5 -15 10 -15 6 0 10 -9 10 -20 0 -24 -32 -27 -50
-5 -15 18 -34 20 -25 3 4 -7 0 -5 -8 5 -14 16 -15 16 -28 0 -7 -10 -9 -15 -5
-11 5 4 15 -4 23 -19 12 -23 11 -28 -7 -45 -11 -10 -20 -23 -20 -27 0 -12 76
24 118 56 20 15 40 22 49 18 14 -5 13 -2 -3 16 -53 62 -64 69 -64 44z"/>
<path d="M2366 1886 c3 -8 -2 -16 -13 -19 -14 -4 -14 -5 -2 -6 9 0 24 8 34 19
18 19 17 20 -3 20 -14 0 -20 -5 -16 -14z"/>
<path d="M5333 1885 c-7 -8 -13 -21 -13 -30 0 -8 -6 -15 -14 -15 -8 0 -18 -5
-22 -12 -5 -8 -1 -9 12 -4 14 5 16 4 7 -5 -13 -13 -37 -3 -28 12 4 5 -3 9 -13
9 -33 0 -35 -28 -3 -44 27 -15 29 -14 81 39 39 40 56 51 63 42 6 -9 7 -8 4 3
-5 20 -59 24 -74 5z"/>
<path d="M1041 1871 c-7 -13 -7 -23 2 -35 10 -14 12 -11 13 19 1 40 -1 42 -15
16z"/>
<path d="M4796 1837 c3 -10 9 -15 12 -12 3 3 0 11 -7 18 -10 9 -11 8 -5 -6z"/>
<path d="M5131 1789 c-20 -40 -21 -64 -2 -43 11 12 32 76 27 82 -3 2 -14 -15
-25 -39z"/>
<path d="M1200 1798 c0 -15 -5 -39 -10 -54 -6 -15 -9 -29 -6 -31 2 -2 11 17
20 43 11 32 13 51 6 58 -7 7 -10 1 -10 -16z"/>
<path d="M3764 1805 c-5 -12 -10 -12 -27 -3 -12 6 -19 7 -14 3 4 -5 -5 -21
-20 -37 -30 -32 -27 -34 22 -14 18 8 37 11 41 8 4 -4 4 -1 0 6 -5 8 -1 21 10
33 10 11 12 19 5 19 -6 0 -14 -7 -17 -15z"/>
<path d="M4820 1815 c0 -5 7 -16 15 -25 14 -15 12 -16 -14 -12 -31 4 -61 -25
-61 -61 0 -30 -29 -77 -48 -77 -14 0 -14 -2 -3 -9 17 -11 41 -76 41 -113 0
-34 51 -56 71 -31 12 13 14 13 20 -4 7 -16 8 -16 8 0 1 9 6 17 11 17 6 0 10 5
10 11 0 6 10 19 23 30 21 18 21 18 2 19 -12 0 -25 11 -32 26 -10 22 -9 30 5
50 10 14 24 21 34 18 9 -3 26 4 37 15 20 20 20 20 -32 74 -58 59 -87 83 -87
72z m50 -69 c0 -3 -4 -8 -10 -11 -5 -3 -10 -1 -10 4 0 6 5 11 10 11 6 0 10 -2
10 -4z m-14 -105 c-15 -27 -73 -78 -81 -70 -2 2 -6 21 -10 42 -8 39 6 51 23
21 7 -13 15 -7 43 36 31 49 34 51 37 27 2 -14 -4 -39 -12 -56z"/>
<path d="M5411 1777 c-8 -10 -7 -14 2 -14 8 0 14 6 14 14 0 7 -1 13 -2 13 -2
0 -8 -6 -14 -13z"/>
<path d="M3803 1723 c12 -14 15 -23 8 -28 -6 -3 -11 -17 -11 -30 0 -13 -4 -26
-8 -29 -14 -8 -21 -147 -11 -206 3 -19 0 -24 -13 -22 -12 2 -16 -4 -15 -18 1
-23 12 -26 24 -7 4 6 21 23 37 37 26 23 28 23 18 4 -19 -36 15 -46 68 -19 27
14 28 18 28 82 0 38 -5 73 -10 80 -5 6 -8 20 -6 30 3 23 -34 74 -86 114 -23
18 -33 23 -23 12z m81 -247 c-3 -8 -13 -17 -22 -21 -13 -5 -13 -2 3 15 21 24
26 25 19 6z"/>
<path d="M4620 1726 c0 -8 5 -18 10 -21 6 -3 10 3 10 14 0 12 -4 21 -10 21 -5
0 -10 -6 -10 -14z"/>
<path d="M3699 1713 c-31 -19 -52 -50 -44 -63 18 -29 87 11 100 58 8 27 -17
30 -56 5z"/>
<path d="M4520 1710 c8 -5 10 -10 4 -10 -7 0 -14 -8 -17 -19 -3 -15 0 -17 17
-13 11 3 29 11 39 18 18 12 18 13 -1 23 -12 6 -29 11 -39 11 -15 0 -16 -2 -3
-10z"/>
<path d="M5317 1637 c-43 -50 -119 -167 -108 -167 5 0 13 9 16 20 4 11 11 18
16 15 5 -4 9 -1 9 6 0 7 9 23 21 35 11 12 29 37 39 55 10 19 22 33 27 32 5 -1
9 7 9 18 0 10 0 19 -1 19 0 0 -12 -15 -28 -33z"/>
<path d="M3548 1646 c-24 -18 -22 -35 5 -45 37 -14 50 8 25 42 -11 13 -16 14
-30 3z"/>
<path d="M2921 1616 c-35 -36 -29 -40 25 -17 20 8 31 19 30 29 -4 27 -20 24
-55 -12z"/>
<path d="M2825 1593 c13 -15 13 -19 -2 -35 -9 -10 -11 -18 -6 -18 6 0 16 7 23
16 11 13 10 18 -8 35 -12 10 -15 11 -7 2z"/>
<path d="M1357 1553 c-7 -39 -1 -40 11 -4 6 17 7 31 3 31 -5 0 -11 -12 -14
-27z"/>
<path d="M4983 1573 c-18 -4 -23 -11 -23 -38 0 -21 6 -35 16 -39 23 -9 46 14
40 38 -3 11 0 26 6 33 11 14 6 15 -39 6z"/>
<path d="M1750 1552 c0 -7 -6 -12 -13 -12 -8 0 -27 -17 -44 -38 -24 -30 -28
-42 -21 -61 7 -19 11 -21 23 -11 9 7 18 10 22 6 3 -3 2 -6 -4 -6 -6 0 -9 -10
-6 -22 4 -20 1 -19 -26 10 -17 17 -34 32 -38 31 -5 0 -18 -13 -31 -30 -16 -20
-19 -27 -8 -23 9 4 16 1 16 -6 0 -7 6 -10 14 -7 10 4 13 0 11 -14 -3 -13 0
-19 8 -17 14 5 88 -67 79 -77 -4 -3 1 -3 11 1 10 3 17 1 17 -5 0 -6 7 -11 15
-11 8 0 15 -4 15 -9 0 -5 14 -12 30 -16 17 -4 30 -13 30 -21 0 -8 3 -13 8 -12
11 2 62 -24 62 -33 0 -4 11 -10 25 -13 14 -4 25 -11 25 -17 0 -6 5 -7 10 -4 6
3 10 1 10 -5 0 -6 4 -9 9 -6 5 4 11 3 13 -2 3 -7 111 -76 161 -101 15 -8 27
-18 27 -23 0 -5 4 -7 9 -4 5 4 17 3 26 0 14 -6 14 -9 -5 -29 -18 -19 -25 -21
-54 -11 -19 6 -32 14 -30 18 3 4 -2 8 -10 8 -9 0 -25 9 -36 20 -11 11 -30 20
-42 20 -25 1 -61 23 -53 33 3 4 2 5 -1 2 -11 -8 -84 37 -77 48 3 6 2 7 -4 4
-5 -4 -19 3 -31 13 -12 11 -25 20 -30 20 -5 0 -21 11 -36 25 -15 14 -30 25
-33 25 -4 0 -16 9 -27 20 -12 10 -38 26 -59 35 -37 15 -38 15 -32 -4 6 -20
-21 -98 -31 -88 -3 3 2 19 11 37 9 18 15 34 13 36 -2 2 -14 -17 -26 -42 -12
-25 -18 -43 -12 -39 5 3 10 -1 10 -9 0 -13 189 -166 205 -166 3 0 15 -9 27
-19 11 -11 26 -17 33 -14 8 2 20 -5 27 -16 7 -12 18 -21 25 -21 7 0 13 -4 13
-10 0 -5 6 -10 13 -10 8 0 22 -9 32 -20 10 -11 22 -17 27 -14 5 3 19 -3 32
-15 l22 -21 102 103 102 102 -143 145 c-141 143 -234 231 -208 198 10 -13 10
-18 2 -18 -15 0 -176 158 -169 165 3 4 14 -4 25 -17 10 -13 28 -28 38 -34 11
-6 20 -17 20 -25 0 -8 6 -14 13 -14 7 0 17 -7 22 -15 5 -8 11 -12 14 -9 4 4
-104 118 -159 168 -3 2 -5 -1 -5 -7z m-4 -178 c-4 -9 -9 -15 -11 -12 -3 3 -3
13 1 22 4 9 9 15 11 12 3 -3 3 -13 -1 -22z m334 -254 c0 -5 -5 -10 -11 -10 -5
0 -7 5 -4 10 3 6 8 10 11 10 2 0 4 -4 4 -10z m-229 -83 c-10 -9 -11 -8 -5 6 3
10 9 15 12 12 3 -3 0 -11 -7 -18z m120 -4 c13 -17 13 -17 -5 -3 -18 14 -19 13
-13 -3 4 -10 3 -16 -2 -12 -5 3 -13 -4 -16 -16 -4 -11 -9 -18 -12 -16 -4 5 24
67 31 67 2 0 10 -8 17 -17z m124 -41 c-3 -3 -11 0 -18 7 -9 10 -8 11 6 5 10
-3 15 -9 12 -12z"/>
<path d="M4606 1461 c-26 -58 -26 -60 -9 -90 22 -37 31 -39 43 -6 10 27 3 58
-11 49 -5 -3 -9 -3 -9 0 0 8 24 60 30 66 3 3 11 13 19 23 12 15 11 17 -11 17
-21 0 -30 -10 -52 -59z"/>
<path d="M4928 1478 c-16 -5 -28 -13 -28 -18 0 -11 39 -24 48 -16 4 5 12 49 8
45 -1 0 -13 -5 -28 -11z"/>
<path d="M5156 1475 c4 -8 10 -15 15 -15 15 0 10 -22 -8 -44 -13 -15 -10 -14
10 3 l27 25 -22 23 c-25 27 -29 29 -22 8z"/>
<path d="M1470 1419 c-7 -11 -10 -23 -7 -25 2 -2 9 7 15 21 14 30 7 33 -8 4z"/>
<path d="M1540 1318 c-12 -29 -27 -56 -32 -59 -5 -3 -1 -12 8 -20 10 -8 15 -9
11 -3 -4 7 5 38 18 69 14 32 24 59 22 62 -2 2 -14 -20 -27 -49z"/>
<path d="M4700 1362 c-19 -2 -43 -11 -52 -19 -22 -20 -23 -56 -3 -73 12 -10
17 -5 32 29 17 39 43 56 43 29 0 -7 5 -5 11 5 15 26 8 32 -31 29z"/>
<path d="M4998 1353 c-28 -33 -73 -132 -63 -141 4 -5 37 56 33 62 -2 2 4 12
13 22 15 19 42 74 35 74 -1 0 -10 -8 -18 -17z"/>
<path d="M1590 1310 c-6 -12 -9 -24 -7 -27 3 -2 11 5 17 17 6 12 9 24 7 27 -3
2 -11 -5 -17 -17z"/>
<path d="M5324 1302 c0 -11 8 -19 19 -19 18 -2 18 -1 2 18 -22 23 -21 23 -21
1z"/>
<path d="M1481 1286 c-7 -8 -8 -17 -3 -20 6 -3 13 1 16 10 9 23 2 28 -13 10z"/>
<path d="M4920 1270 c-6 -11 -8 -20 -6 -20 3 0 10 9 16 20 6 11 8 20 6 20 -3
0 -10 -9 -16 -20z"/>
<path d="M4680 1249 l-25 -10 25 -19 c25 -19 25 -18 47 2 13 12 23 25 23 30 0
11 -39 9 -70 -3z"/>
<path d="M1550 1230 c-6 -11 -7 -20 -2 -20 6 0 12 9 15 20 3 11 3 20 1 20 -2
0 -8 -9 -14 -20z"/>
<path d="M4635 1240 c-3 -5 -1 -10 4 -10 6 0 11 5 11 10 0 6 -2 10 -4 10 -3 0
-8 -4 -11 -10z"/>
<path d="M2492 1191 c-23 -20 -42 -40 -42 -46 0 -14 70 -14 70 -1 0 8 2 8 8 0
12 -17 39 -23 51 -11 18 18 13 29 -8 18 -10 -6 -21 -7 -25 -4 -10 10 -7 48 5
60 7 7 6 12 -3 16 -8 2 -33 -12 -56 -32z"/>
<path d="M4750 1158 c-11 -12 -20 -28 -20 -35 0 -7 -4 -13 -10 -13 -5 0 -7 -7
-3 -16 4 -12 9 -8 20 17 8 18 21 41 30 51 9 10 13 18 10 18 -3 0 -15 -10 -27
-22z"/>
<path d="M5221 1157 c-13 -21 -12 -21 5 -5 10 10 16 20 13 22 -3 3 -11 -5 -18
-17z"/>
<path d="M2763 1114 c-3 -8 -3 -18 1 -21 3 -4 6 -1 6 5 0 7 5 12 10 12 16 0
11 -33 -10 -58 -15 -19 -23 -21 -38 -13 -11 6 -23 7 -28 3 -5 -4 -4 0 2 8 6 8
14 25 17 38 4 19 1 22 -26 22 -18 0 -39 -5 -47 -10 -13 -9 -9 -16 20 -41 50
-43 73 -46 120 -15 31 20 40 32 39 54 0 26 -1 26 -9 5 -12 -30 -22 -30 -15 0
5 18 2 23 -15 24 -12 1 -24 -5 -27 -13z"/>
<path d="M4686 1092 c-15 -24 -25 -63 -15 -57 12 8 32 56 25 62 -2 2 -7 0 -10
-5z"/>
<path d="M2348 1048 l-29 -31 37 -38 c49 -50 116 -97 132 -92 6 3 12 0 12 -5
0 -5 7 -13 16 -16 10 -4 13 -2 8 7 -4 6 1 5 12 -4 26 -22 57 -33 48 -16 -6 9
-5 9 8 0 8 -7 18 -10 21 -6 4 3 7 0 7 -8 0 -11 2 -11 10 1 6 9 10 10 10 3 0
-6 15 -14 33 -18 17 -3 52 -12 77 -20 78 -23 100 -26 98 -14 -2 6 3 14 10 16
7 3 10 -1 6 -10 -4 -12 8 -18 51 -27 52 -11 96 -7 82 7 -4 3 2 18 12 32 10 14
21 34 24 44 4 9 11 17 17 17 13 0 13 -2 -5 -36 -8 -15 -12 -30 -10 -32 8 -9
55 -10 50 -2 -3 5 0 21 5 36 8 19 8 30 0 38 -8 8 -10 7 -5 -4 3 -9 -1 -24 -10
-35 -14 -19 -14 -18 -9 13 5 24 3 32 -8 32 -9 0 -30 3 -47 6 -29 6 -32 4 -51
-40 -12 -25 -26 -46 -33 -46 -7 0 -6 -4 3 -10 13 -8 12 -10 -2 -10 -23 0 -23
1 7 60 20 40 22 50 10 50 -8 0 -15 6 -15 13 0 8 -18 13 -57 13 -60 1 -237 41
-327 75 -29 10 -78 35 -110 54 l-58 35 -30 -32z m302 -170 c0 -16 -3 -19 -11
-11 -6 6 -8 16 -5 22 11 17 16 13 16 -11z m86 -25 c-8 -15 -15 -25 -16 -21 0
12 23 58 27 54 3 -2 -2 -17 -11 -33z m251 -55 c-3 -8 -6 -5 -6 6 -1 11 2 17 5
13 3 -3 4 -12 1 -19z m0 -24 c-3 -3 -12 -4 -19 -1 -8 3 -5 6 6 6 11 1 17 -2
13 -5z"/>
<path d="M4397 1066 c-3 -8 -2 -18 4 -22 16 -9 22 2 11 21 -8 15 -10 16 -15 1z"/>
<path d="M4468 1059 c7 -9 10 -25 6 -35 -5 -16 -4 -16 5 -4 10 13 12 13 21 0
5 -8 10 -10 10 -4 0 6 -12 21 -27 35 -15 13 -22 17 -15 8z"/>
<path d="M3425 1050 c-4 -6 -12 -7 -18 -4 -8 5 -8 2 1 -7 10 -11 15 -10 29 4
10 10 12 17 6 17 -7 0 -15 -5 -18 -10z"/>
<path d="M4534 1046 c-10 -8 -16 -17 -13 -20 3 -3 14 3 24 14 21 23 17 26 -11
6z"/>
<path d="M3435 1020 c-6 -10 2 -14 20 -10 6 1 7 -2 2 -6 -4 -4 0 -16 10 -26
17 -19 39 -25 28 -8 -3 6 2 10 12 10 12 0 6 8 -19 25 -42 28 -44 29 -53 15z"/>
<path d="M4536 1014 c-10 -26 -7 -33 17 -45 20 -11 21 -11 8 5 -12 14 -12 19
-2 26 8 4 10 13 7 19 -10 16 -23 14 -30 -5z"/>
<path d="M4930 1015 c-7 -9 -10 -18 -7 -21 3 -3 10 4 17 15 13 25 8 27 -10 6z"/>
<path d="M3145 976 c-11 -6 -22 -12 -25 -14 -2 -2 2 -7 10 -12 10 -6 18 -2 28
11 17 25 13 30 -13 15z"/>
<path d="M4957 963 c-4 -3 -7 -11 -7 -17 0 -6 5 -5 12 2 6 6 9 14 7 17 -3 3
-9 2 -12 -2z"/>
<path d="M3196 951 c-3 -5 6 -11 19 -14 25 -4 40 4 28 17 -9 9 -41 7 -47 -3z"/>
<path d="M4701 896 c-15 -16 -19 -26 -11 -31 6 -4 12 -5 14 -4 40 60 38 79 -3
35z"/>
<path d="M4646 864 c-3 -8 -2 -12 4 -9 6 3 10 1 10 -4 0 -6 -3 -11 -8 -11 -4
0 -16 -17 -27 -37 -10 -21 -26 -46 -34 -56 -8 -9 -12 -19 -10 -21 6 -7 87 56
94 73 5 12 3 12 -11 0 -16 -13 -16 -12 -5 9 12 22 31 30 31 13 0 -5 10 -11 21
-14 18 -5 14 2 -17 34 -21 21 -39 39 -40 39 -1 0 -5 -7 -8 -16z"/>
<path d="M3885 860 c-3 -5 -1 -10 4 -10 6 0 11 5 11 10 0 6 -2 10 -4 10 -3 0
-8 -4 -11 -10z"/>
<path d="M4285 860 c-16 -7 -17 -9 -3 -9 9 -1 20 4 23 9 7 11 7 11 -20 0z"/>
<path d="M4228 843 c7 -3 16 -2 19 1 4 3 -2 6 -13 5 -11 0 -14 -3 -6 -6z"/>
<path d="M4158 833 c-10 -2 -18 -9 -18 -14 0 -13 12 -11 34 6 20 15 16 17 -16
8z"/>
<path d="M3649 802 c5 -10 20 -18 33 -19 13 0 17 1 11 4 -7 3 -13 11 -13 19 0
8 -9 14 -20 14 -17 0 -19 -3 -11 -18z"/>
<path d="M4036 804 c-5 -14 -4 -15 9 -4 17 14 19 20 6 20 -5 0 -12 -7 -15 -16z"/>
<path d="M3838 793 c-15 -18 -31 -53 -24 -53 2 0 13 16 25 35 22 38 22 44 -1
18z"/>
<path d="M3762 765 c-17 -37 -14 -45 4 -12 9 16 14 31 11 33 -2 2 -9 -7 -15
-21z"/>
<path d="M3173 750 c-3 -11 -10 -17 -16 -13 -6 4 -7 1 -2 -6 9 -15 27 0 31 24
3 22 -7 18 -13 -5z"/>
<path d="M3620 760 c0 -5 5 -10 11 -10 5 0 7 5 4 10 -3 6 -8 10 -11 10 -2 0
-4 -4 -4 -10z"/>
<path d="M4561 744 c-6 -15 -9 -29 -7 -32 3 -2 10 8 16 23 14 36 7 43 -9 9z"/>
<path d="M4379 676 c-11 -25 -12 -33 -3 -29 12 4 29 51 21 59 -2 2 -10 -12
-18 -30z"/>
<path d="M4177 638 c-4 -14 -9 -34 -13 -45 -3 -10 2 -5 11 10 9 16 15 36 13
45 -3 12 -6 9 -11 -10z"/>
<path d="M4315 640 c-3 -5 -1 -10 4 -10 6 0 11 5 11 10 0 6 -2 10 -4 10 -3 0
-8 -4 -11 -10z"/>
<path d="M3826 588 c10 -14 21 -24 23 -22 3 3 -6 15 -18 27 l-24 22 19 -27z"/>
<path d="M4140 601 c0 -7 -4 -10 -8 -7 -5 3 -9 -1 -9 -9 0 -8 4 -15 9 -15 11
0 22 29 14 37 -3 4 -6 1 -6 -6z"/>
<path d="M3733 550 c-18 -41 -19 -50 -7 -50 9 0 13 4 10 8 -2 4 4 27 14 50 11
23 16 42 11 42 -4 0 -17 -22 -28 -50z"/>
<path d="M3875 540 c10 -11 20 -20 23 -20 3 0 -3 9 -13 20 -10 11 -20 20 -23
20 -3 0 3 -9 13 -20z"/>
<path d="M3755 510 c-3 -5 -1 -10 4 -10 6 0 11 5 11 10 0 6 -2 10 -4 10 -3 0
-8 -4 -11 -10z"/>
</g>
</svg>
